<svg width="960" height="600" version="1.1" baseProfile="full" xmlns="http://www.w3.org/2000/svg">
<g transform="translate(0,600) scale(1,-1)">
<polyline stroke="black" fill="none" points="448.02869299340176,541.5706580512093 448.0286929705426,541.5706603080013" />
<polyline stroke="black" fill="none" points="448.0286929705426,541.5706603080013 489.7440298346533,535.9834419221118" />
<polyline stroke="black" fill="none" points="448.0286929705426,541.5706603080013 381.2834743570479,529.3736982686139" />
<polyline stroke="black" fill="none" points="458.268312441383,516.5257275392918 458.2683107870409,516.5257271933749" />
<polyline stroke="black" fill="none" points="458.26830887341407,516.525727481639 458.2683107870409,516.5257271933749" />
<polyline stroke="black" fill="none" points="458.62463227578223,465.1828475657336 458.2683107870409,516.5257271933749" />
<polyline stroke="black" fill="none" points="527.4634784376556,543.1288468532732 527.4634784736413,543.1288492475646" />
<polyline stroke="black" fill="none" points="527.4634784736413,543.1288492475646 616.5490882447783,531.9278961069883" />
<polyline stroke="black" fill="none" points="527.4634784736413,543.1288492475646 458.1780976485145,529.5246690437623" />
<polyline stroke="black" fill="none" points="616.1086733909174,521.7786034717567 616.5490882447783,531.9278961069883" />
<polyline stroke="black" fill="none" points="616.5490882447783,531.9278961069883 549.6924328453729,516.577562481775" />
<polyline stroke="black" fill="none" points="458.6215238061397,465.63075146074783 458.1780976485145,529.5246690437623" />
<polyline stroke="black" fill="none" points="458.1780976485145,529.5246690437623 549.6924328453729,516.577562481775" />
<polyline stroke="black" fill="none" points="548.160974278606,447.76646102232337 549.6924328453729,516.577562481775" />
<polyline stroke="black" fill="none" points="616.0756328778663,521.017189925339 616.0756329868387,521.0171924365932" />
<polyline stroke="black" fill="none" points="616.0756329868387,521.0171924365932 716.1175888580339,507.74199697086686" />
<polyline stroke="black" fill="none" points="616.0756329868387,521.0171924365932 549.4321371260779,504.8820223355717" />
<polyline stroke="black" fill="none" points="713.3611067192087,471.2885509866411 716.1175888580339,507.74199697086686" />
<polyline stroke="black" fill="none" points="716.1175888580339,507.74199697086686 653.1455298022082,489.4025009412039" />
<polyline stroke="black" fill="none" points="548.1693025397268,448.1406643036927 549.4321371260779,504.8820223355717" />
<polyline stroke="black" fill="none" points="549.4321371260779,504.8820223355717 653.1455298022082,489.4025009412039" />
<polyline stroke="black" fill="none" points="649.5783023371148,425.4477161069583 653.1455298022082,489.4025009412039" />
<polyline stroke="black" fill="none" points="713.3575479271342,471.2414872916405 713.3575481235569,471.24148988925754" />
<polyline stroke="black" fill="none" points="713.3575481235569,471.24148988925754 770.9105229365384,462.33586590520605" />
<polyline stroke="black" fill="none" points="713.3575481235569,471.24148988925754 650.9567342642301,450.1608352365824" />
<polyline stroke="black" fill="none" points="649.5755281985672,425.39798016058216 650.9567342642301,450.1608352365824" />
<polyline stroke="black" fill="none" points="650.9567342642301,450.1608352365824 695.8941404416606,442.34952617865946" />
<polyline stroke="black" fill="none" points="830.7337205085983,501.60530139624177 830.733720828485,501.6053042385828" />
<polyline stroke="black" fill="none" points="941.1577514407686,354.9143455124823 941.1577544103177,354.9143449262892" />
<polyline stroke="black" fill="none" points="830.733720828485,501.6053042385828 959.9476985315877,485.1140069959237" />
<polyline stroke="black" fill="none" points="830.733720828485,501.6053042385828 773.0861730504653,481.30500413812683" />
<polyline stroke="black" fill="none" points="941.1577544103177,354.9143449262892 959.8774352408624,475.46435097901053" />
<polyline stroke="black" fill="none" points="941.1577544103177,354.9143449262892 891.8624244054338,320.5614424618361" />
<polyline stroke="black" fill="none" points="959.9834741149016,484.28966474622155 911.6250501039235,461.4117297394196" />
<polyline stroke="black" fill="none" points="768.5982897898045,433.895502522644 773.0861730504653,481.30500413812683" />
<polyline stroke="black" fill="none" points="891.862421248036,320.5614431603039 891.8624244054338,320.5614424618361" />
<polyline stroke="black" fill="none" points="773.0861730504653,481.30500413812683 911.6250501039235,461.4117297394196" />
<polyline stroke="black" fill="none" points="891.8624244054338,320.5614424618361 911.6250501039235,461.4117297394196" />
<polyline stroke="black" fill="none" points="377.4959751210796,529.7458787235273 377.4959750427546,529.7458811263444" />
<polyline stroke="black" fill="none" points="377.4959750427546,529.7458811263444 458.26055468606,517.6433150224075" />
<polyline stroke="black" fill="none" points="377.4959750427546,529.7458811263444 312.0439884915461,517.8484576692068" />
<polyline stroke="black" fill="none" points="458.62475022092667,465.1658526789719 458.26055468606,517.6433150224075" />
<polyline stroke="black" fill="none" points="458.26055468606,517.6433150224075 378.43174079487574,501.0388951630361" />
<polyline stroke="black" fill="none" points="378.4317388471685,501.0388954964942 378.43174079487574,501.0388951630361" />
<polyline stroke="black" fill="none" points="379.1021560028091,480.4722096222267 378.43174079487574,501.0388951630361" />
<polyline stroke="black" fill="none" points="577.55067063113,420.13751713285706 618.9246460011047,411.793804838578" />
<polyline stroke="black" fill="none" points="619.4945769140185,409.83903823572365 609.3134277604254,406.0480445454118" />
<polyline stroke="black" fill="none" points="876.8956225346203,213.89151239124158 876.8956255526793,213.89151154282237" />
<polyline stroke="black" fill="none" points="842.5421926702255,355.41565844704456 895.2160829044806,344.4633151293815" />
<polyline stroke="black" fill="none" points="876.8956255526793,213.89151154282237 895.2160829044806,344.4633151293815" />
<polyline stroke="black" fill="none" points="876.8956255526793,213.89151154282237 818.5742194665727,163.9338142664324" />
<polyline stroke="black" fill="none" points="895.2160829044806,344.4633151293815 835.7921332407947,305.24530380031894" />
<polyline stroke="black" fill="none" points="756.3084678139901,183.76151607266112 818.5742194665727,163.9338142664324" />
<polyline stroke="black" fill="none" points="835.7921298401619,305.2453046051085 835.7921332407947,305.24530380031894" />
<polyline stroke="black" fill="none" points="818.5742194665727,163.9338142664324 835.7921332407947,305.24530380031894" />
<polyline stroke="black" fill="none" points="296.3138748305702,520.3050414790126 296.3138746796587,520.3050440547502" />
<polyline stroke="black" fill="none" points="296.3138746796587,520.3050440547502 378.2499119003779,506.61695731185904" />
<polyline stroke="black" fill="none" points="296.3138746796587,520.3050440547502 202.43474457874908,503.6621207966639" />
<polyline stroke="black" fill="none" points="379.11891682812416,479.95802882862483 378.2499119003779,506.61695731185904" />
<polyline stroke="black" fill="none" points="378.2499119003779,506.61695731185904 284.6854400507325,487.6326640679682" />
<polyline stroke="black" fill="none" points="205.9143634617472,464.5680844343915 202.43474457874908,503.6621207966639" />
<polyline stroke="black" fill="none" points="202.43474457874908,503.6621207966639 284.6854400507325,487.6326640679682" />
<polyline stroke="black" fill="none" points="285.0994286963816,481.05669661663154 284.6854400507325,487.6326640679682" />
<polyline stroke="black" fill="none" points="379.1334551483724,479.5120290104558 379.13345506086176,479.5120316950653" />
<polyline stroke="black" fill="none" points="379.13345506086176,479.5120316950653 471.7043739834542,462.1827551549838" />
<polyline stroke="black" fill="none" points="379.13345506086176,479.5120316950653 336.5449117986977,469.81475699850944" />
<polyline stroke="black" fill="none" points="471.7043739911492,462.1827523007637 471.7043739834542,462.1827551549838" />
<polyline stroke="black" fill="none" points="471.7043739834542,462.1827551549838 464.96806138307653,460.39218906342444" />
<polyline stroke="black" fill="none" points="471.70638027706514,461.4385821764937 471.7063802693739,461.43858502933324" />
<polyline stroke="black" fill="none" points="471.7063802693739,461.43858502933324 578.0069848982475,441.48385715833973" />
<polyline stroke="black" fill="none" points="471.7063802693739,461.43858502933324 466.6638104716588,460.09450312977094" />
<polyline stroke="black" fill="none" points="577.0981334536827,413.141687501315 578.0069848982475,441.48385715833973" />
<polyline stroke="black" fill="none" points="578.0069848982475,441.48385715833973 523.4644864319359,424.02404333624656" />
<polyline stroke="black" fill="none" points="703.3146260091552,444.99275697414305 703.3146262516018,444.9927602961045" />
<polyline stroke="black" fill="none" points="831.1989360435105,267.5478766811144 831.1989393916525,267.54787581621997" />
<polyline stroke="black" fill="none" points="703.3146262516018,444.9927602961045 849.7600286285981,419.8831239675412" />
<polyline stroke="black" fill="none" points="703.3146262516018,444.9927602961045 619.8023199688887,414.3208533831531" />
<polyline stroke="black" fill="none" points="831.1989393916525,267.54787581621997 849.7600286285981,419.8831239675412" />
<polyline stroke="black" fill="none" points="831.1989393916525,267.54787581621997 758.8518028227014,215.93224085622427" />
<polyline stroke="black" fill="none" points="849.7600286285981,419.8831239675412 775.3311920680285,383.22234860778707" />
<polyline stroke="black" fill="none" points="619.0542302872909,398.111732865613 619.8023199688887,414.3208533831531" />
<polyline stroke="black" fill="none" points="758.8517992512968,215.93224192493386 758.8518028227014,215.93224085622427" />
<polyline stroke="black" fill="none" points="619.8023199688887,414.3208533831531 775.3311920680285,383.22234860778707" />
<polyline stroke="black" fill="none" points="758.8518028227014,215.93224085622427 775.3311920680285,383.22234860778707" />
<polyline stroke="black" fill="none" points="285.15900840870677,480.11030774068615 285.15900822414466,480.1103106723473" />
<polyline stroke="black" fill="none" points="285.15900822414466,480.1103106723473 344.07454292548664,468.2767630387536" />
<polyline stroke="black" fill="none" points="285.15900822414466,480.1103106723473 174.55676793721165,456.9635202278067" />
<polyline stroke="black" fill="none" points="269.3723320513072,434.12577857247084 269.3723293370073,434.1257779086891" />
<polyline stroke="black" fill="none" points="181.60335835229478,386.0972109030258 174.55676793721165,456.9635202278067" />
<polyline stroke="black" fill="none" points="174.55676793721165,456.9635202278067 269.3723293370073,434.1257779086891" />
<polyline stroke="black" fill="none" points="276.1238987389116,336.3931211453744 269.3723293370073,434.1257779086891" />
<polyline stroke="black" fill="none" points="379.238443073889,476.29125832367697 379.23844297068257,476.2912614897959" />
<polyline stroke="black" fill="none" points="379.23844297068257,476.2912614897959 489.9175944336728,455.3074231232241" />
<polyline stroke="black" fill="none" points="379.23844297068257,476.2912614897959 268.22823177915586,450.6872152974105" />
<polyline stroke="black" fill="none" points="489.8394861415089,431.12789137931 489.9175944336728,455.3074231232241" />
<polyline stroke="black" fill="none" points="489.9175944336728,455.3074231232241 380.9090424207909,425.0413895470981" />
<polyline stroke="black" fill="none" points="276.1469529156535,336.0593993381382 268.22823177915586,450.6872152974105" />
<polyline stroke="black" fill="none" points="268.22823177915586,450.6872152974105 380.9090424207909,425.0413895470981" />
<polyline stroke="black" fill="none" points="385.1411130503692,295.21189762173907 380.9090424207909,425.0413895470981" />
<polyline stroke="black" fill="none" points="489.83792043670377,430.6432052085005 489.837920447526,430.6432085586723" />
<polyline stroke="black" fill="none" points="489.837920447526,430.6432085586723 619.3208696864406,403.8891018921566" />
<polyline stroke="black" fill="none" points="489.837920447526,430.6432085586723 381.7920109588672,397.95409192892305" />
<polyline stroke="black" fill="none" points="619.0971465189136,399.0416138513324 619.3208696864406,403.8891018921566" />
<polyline stroke="black" fill="none" points="619.3208696864406,403.8891018921566 609.9977977087292,400.35382746028307" />
<polyline stroke="black" fill="none" points="385.10725603724904,296.2505473032385 381.7920109588672,397.95409192892305" />
<polyline stroke="black" fill="none" points="381.7920109588672,397.95409192892305 419.4217624882687,388.6352328451794" />
<polyline stroke="black" fill="none" points="751.9855567039615,146.2297515208732 751.9855601735051,146.22975033715585" />
<polyline stroke="black" fill="none" points="681.0934253330287,326.4467465640648 767.6406073925862,305.1515706272214" />
<polyline stroke="black" fill="none" points="751.9855601735051,146.22975033715585 767.6406073925862,305.1515706272214" />
<polyline stroke="black" fill="none" points="751.9855601735051,146.22975033715585 663.1247263432037,74.91690201772516" />
<polyline stroke="black" fill="none" points="767.6406073925862,305.1515706272214 675.036311220063,249.87463682033524" />
<polyline stroke="black" fill="none" points="558.0991014786676,117.32800392709791 663.1247263432037,74.91690201772516" />
<polyline stroke="black" fill="none" points="675.0363072599372,249.8746379838934 675.036311220063,249.87463682033524" />
<polyline stroke="black" fill="none" points="663.1247263432037,74.91690201772516 675.036311220063,249.87463682033524" />
<polyline stroke="black" fill="none" points="95.84354477631888,456.41048361386913 95.8435444096167,456.41048654556175" />
<polyline stroke="black" fill="none" points="95.8435444096167,456.41048654556175 176.69691091408282,435.440482096688" />
<polyline stroke="black" fill="none" points="95.8435444096167,456.41048654556175 1.1419441571406423,437.68101065530914" />
<polyline stroke="black" fill="none" points="181.63558964465904,385.77306651544563 176.69691091408282,435.440482096688" />
<polyline stroke="black" fill="none" points="65.73952930471324,260.03437625549793 65.73952625883379,260.03437524284016" />
<polyline stroke="black" fill="none" points="176.69691091408282,435.440482096688 44.763221981042705,405.6044354304263" />
<polyline stroke="black" fill="none" points="0.23008455009676254,290.0747508393875 65.73952625883379,260.03437524284016" />
<polyline stroke="black" fill="none" points="0.22847111920202678,419.99615307803145 44.763221981042705,405.6044354304263" />
<polyline stroke="black" fill="none" points="65.73952625883379,260.03437524284016 44.763221981042705,405.6044354304263" />
<polyline stroke="black" fill="none" points="181.64780870598207,385.6501815841009 181.64780840436612,385.6501846173985" />
<polyline stroke="black" fill="none" points="72.8219417787065,210.8842874504054 72.82193879989916,210.88428635097748" />
<polyline stroke="black" fill="none" points="181.64780840436612,385.6501846173985 274.660824467942,357.57192077432825" />
<polyline stroke="black" fill="none" points="181.64780840436612,385.6501846173985 52.574275187227386,351.39777107742026" />
<polyline stroke="black" fill="none" points="276.15650566647025,335.9211180495752 274.660824467942,357.57192077432825" />
<polyline stroke="black" fill="none" points="161.29026472938443,166.38102371691377 161.29026169863926,166.3810224209221" />
<polyline stroke="black" fill="none" points="274.660824467942,357.57192077432825 144.00966350206636,317.1793683703767" />
<polyline stroke="black" fill="none" points="72.82193879989916,210.88428635097748 52.574275187227386,351.39777107742026" />
<polyline stroke="black" fill="none" points="72.82193879989916,210.88428635097748 161.29026169863926,166.3810224209221" />
<polyline stroke="black" fill="none" points="52.574275187227386,351.39777107742026 144.00966350206636,317.1793683703767" />
<polyline stroke="black" fill="none" points="161.29026169863926,166.3810224209221 144.00966350206636,317.1793683703767" />
<polyline stroke="black" fill="none" points="276.21143392661986,335.12600146612033 276.2114337054886,335.1260046671155" />
<polyline stroke="black" fill="none" points="163.81978615008592,144.30727107528134 163.81978314916466,144.30726973922688" />
<polyline stroke="black" fill="none" points="276.2114337054886,335.1260046671155 384.97334013101124,300.35875711100084" />
<polyline stroke="black" fill="none" points="276.2114337054886,335.1260046671155 146.81971591738278,292.65757511758176" />
<polyline stroke="black" fill="none" points="385.1236822579294,295.74663135479574 384.97334013101124,300.35875711100084" />
<polyline stroke="black" fill="none" points="268.2008599862536,89.86588913384315 268.20085696663193,89.86588753789283" />
<polyline stroke="black" fill="none" points="384.97334013101124,300.35875711100084 255.69211958221865,249.60339069924976" />
<polyline stroke="black" fill="none" points="163.81978314916466,144.30726973922688 146.81971591738278,292.65757511758176" />
<polyline stroke="black" fill="none" points="163.81978314916466,144.30726973922688 268.20085696663193,89.86588753789283" />
<polyline stroke="black" fill="none" points="146.81971591738278,292.65757511758176 255.69211958221865,249.60339069924976" />
<polyline stroke="black" fill="none" points="268.20085696663193,89.86588753789283 255.69211958221865,249.60339069924976" />
<polyline stroke="black" fill="none" points="385.1394543808177,295.26278151380694 385.1394542690186,295.2627849435288" />
<polyline stroke="black" fill="none" points="512.7721873638876,96.6275485386472 512.7721903606686,96.62754724909081" />
<polyline stroke="black" fill="none" points="268.5917104505497,84.87469967287674 268.591707437473,84.87469806745185" />
<polyline stroke="black" fill="none" points="385.1394542690186,295.2627849435288 256.1304523880421,244.00584829315528" />
<polyline stroke="black" fill="none" points="512.7721903606686,96.62754724909081 513.1709982790007,129.6234708874416" />
<polyline stroke="black" fill="none" points="512.7721903606686,96.62754724909081 394.1481084257391,18.89948799759685" />
<polyline stroke="black" fill="none" points="388.5363568315524,191.05428941507216 388.53635364375833,191.05428784007267" />
<polyline stroke="black" fill="none" points="268.591707437473,84.87469806745185 256.1304523880421,244.00584829315528" />
<polyline stroke="black" fill="none" points="268.591707437473,84.87469806745185 394.1481084257391,18.89948799759685" />
<polyline stroke="black" fill="none" points="256.1304523880421,244.00584829315528 388.53635364375833,191.05428784007267" />
<polyline stroke="black" fill="none" points="394.1481084257391,18.89948799759685 388.53635364375833,191.05428784007267" />
<polyline stroke="black" fill="none" points="516.6744926602544,419.4899147500675 516.6744927103865,419.4899188978236" />
<polyline stroke="black" fill="none" points="671.1664830992636,193.03453733754642 671.1664869716232,193.03453606207506" />
<polyline stroke="black" fill="none" points="388.85190645537193,181.3740046622018 388.85190327949465,181.37400306444718" />
<polyline stroke="black" fill="none" points="516.6744927103865,419.4899188978236 684.1844012289329,384.2420717392275" />
<polyline stroke="black" fill="none" points="516.6744927103865,419.4899188978236 382.5008033285655,376.2100896914961" />
<polyline stroke="black" fill="none" points="671.1664869716232,193.03453606207506 684.1844012289329,384.2420717392275" />
<polyline stroke="black" fill="none" points="671.1664869716232,193.03453606207506 553.034946959571,114.55059516802325" />
<polyline stroke="black" fill="none" points="684.1844012289329,384.2420717392275 558.7925857057062,329.7182448144964" />
<polyline stroke="black" fill="none" points="388.85190327949465,181.37400306444718 382.5008033285655,376.2100896914961" />
<polyline stroke="black" fill="none" points="388.85190327949465,181.37400306444718 553.034946959571,114.55059516802325" />
<polyline stroke="black" fill="none" points="382.5008033285655,376.2100896914961 558.7925857057062,329.7182448144964" />
<polyline stroke="black" fill="none" points="553.034946959571,114.55059516802325 558.7925857057062,329.7182448144964" />
</g></svg>
