<svg width="1024" height="1024" version="1.1" baseProfile="full" xmlns="http://www.w3.org/2000/svg">
<g transform="translate(0,1024) scale(1,-1)">
<polyline stroke="black" fill="none" points="430.4425918495251,321.2062341793662 432.2579812180997,320.45589246115657 434.10423469220655,319.72172062056705 435.9807381236793,319.0040623017425 437.8868587552088,318.30325534124256 439.8219454520892,317.6196314803925 441.7853289555033,316.953516079598 443.77632215734104,316.3052278350637 445.7942203965075,315.67507849835977 447.8383017766298,315.0633725992814 449.9078275050343,314.47040717245 452.00204225281806,313.89647148810155 454.12017453579796,313.34184678751114 456.2614371160751,312.8068060234953 458.42502742390883,312.29161360643593 460.6101279995516,311.79652515626054 462.8159069546503,311.3217872608123 465.0415184527784,310.8676372410323 467.2861032086188,310.434302923373 469.5487890052756,310.0220024198493 471.8286912291512,309.63094391612526 474.1249134217854,309.26132546802387 476.43654784801095,308.9133348068318 478.7626760797454,308.58714915376237 481.10236959469813,308.28293504392036 483.454690389238,308.000848160101 485.8186916046324,307.741033176736 488.1934181658354,307.50362361428313 490.5779074319724,307.28874170433886 492.97118985764064,307.09649826573053 495.3722896641167,306.92699259182916 497.7802255195385,306.78031234929995 500.194011227107,306.6565334884869 502.6126564203326,306.55572016560683 505.03516726433264,306.4779246769049 507.46054716217304,306.42318740489924 509.8877974652322,306.3915367768226 512.3159181865568,306.38298923534 514.7439087161714,306.39754922160216 517.1707685372965,306.43520917066667 519.5954979424317,306.495949519297 522.0170987482575,306.5797387261231 524.4345750083107,306.6865333041238 526.8469337224026,306.8162778653691 529.2531855417443,306.96890517793116 531.6523454687671,307.1443362348548 534.04343355063,307.3424803350524 536.4254755654283,307.56323517596354 538.7975037001312,307.80648695780104 541.1585572193003,308.0721104991792 543.5076831236622,308.3599693639027 545.8439367976332,308.6699159986695 548.166382644923,309.0017918814269 550.4740947113725,309.3554276800943 552.7661572942111,309.73064342135444 555.0416655369543,310.1272486691934 557.2997260091942,310.5450427128547 559.5394572705743,310.98381476385794 561.759990418275,311.4433441617176 563.960469617376,311.9234005879848 566.140052613505,312.42374428822234 568.2979112272142,312.9441263015124 570.4332318295802,313.4842886970872 572.5452157985544,314.04396481766304 574.633079955639,314.6228795290515 576.696056982509,315.22074947561464 578.7333958172403,315.8372833411262 580.7443620298488,316.4721821145969 582.7282381768935,317.12513936061816 584.6843241349327,317.7958414937776 586.6119374126747,318.48396805669967 588.5104134417004,319.18919200126277 590.379105845682,319.91117997254906 592.2173866880617,320.64959259508237 594.0246466981982,321.40408476091716 595.8002954760267,322.1743059191415" />
<polyline stroke="black" fill="none" points="428.4681521413307,322.05739485036304 428.6586619152625,321.9723966126427 430.4425918495251,321.2062341793662" />
<polyline stroke="black" fill="none" points="412.1630712663075,332.92632968294816 414.3592801061921,332.0246603995455 416.59501313822574,331.14195591003903 418.8695217499645,330.27865981967636 421.18203109137283,329.4352089434224 423.53174033965433,328.61203289232736 425.9178229978163,327.80955366137084 428.3394272271091,327.0281852194797 430.79567621341266,326.2683331024259 433.28566856756754,325.53039400931823 435.80847875957585,324.81475540340875 438.36315758652006,324.1217951179368 440.9487326739712,323.4518809677386 443.56420901058124,322.805370367346 446.20856951547427,322.1826099563018 448.88077563797526,321.583935232409 451.57976798913256,321.0096701936283 454.304467004416,320.4601269893317 457.05377363688996,319.9356055816032 459.82657008008783,319.4363934172728 462.621720519734,318.9627651113485 465.43807191338703,318.5149821424988 468.27445479700305,318.09329256121583 471.1296841173484,317.69793071127094 474.00256008911896,317.3291169650493 476.8918690755585,316.9870574733259 479.79638449130454,316.6719439300193 482.714867726128,316.38395335242836 485.6460690881749,316.12324787742955 488.5887287652667,315.88997457407805 491.54157780276086,315.6842652730229 494.50333909643143,315.50623641311256 497.4727283987827,315.355988905528 500.4484553371735,315.23360801574626 503.42922444209574,315.1391632635954 506.4137361839193,315.072708341625 509.4006880163955,315.0342810519737 512.3887754251865,315.02390326187594 515.3766929796788,315.0415808779063 518.363135386326,315.087303839021 521.346798541762,315.1610461284107 524.3263805839292,315.2627658041389 527.3005829394671,315.39240504849636 530.2681113656228,315.5498902359623 533.2276769849573,315.73513201961856 536.1779973111421,315.94802543582523 539.1177972641696,316.18845002692353 542.045810173325,316.456269981694 544.9607787663106,316.7513342932581 547.8614561429433,317.07347693407576 550.7466067318982,317.4225170476533 553.6150072290127,317.7982591565435 556.4654475157214,318.20049338618435 559.2967315562437,318.628995704093 562.1076782722075,319.0835281738996 564.8971223934543,319.5638392236799 567.6639152838313,320.06966392801525 570.4069257408515,320.60072430318905 573.1250407681648,321.15672961490174 575.8171663198594,321.73737669786703 578.4822280156877,322.3423502866368 581.1191718263805,322.97132335697995 583.7269647282969,323.62395747713117 586.3045953267318,324.29990316821204 588.8510744472774,324.99880027311485 591.3654356947226,325.72027833313496 593.8467359790443,326.4639569716304 596.2940560081274,327.22944628398204 598.7065007469296,328.01634723313043 601.0831998428796,328.82425204996196 603.4233080173811,329.6527446378208 605.7260054233626,330.50140098042914 607.9904979688929,331.369789552503 610.2160176069509,332.257471732358 612.4018225915116,333.16400221581375 614.5471977001749,334.0889294307111 616.6514544236336,335.03179595137556 618.713931122339,335.9921389123705 620.7339931507831,336.9694904209025 622.7110329498771,337.96337796725754 624.6444701079586,338.9733248326646 626.5337513910168,339.9988504940061 628.3783507427709,341.0394710248107 630.1777692552848,342.0946994919904 631.931535110849,343.1640463478028 633.6392034958922,344.2470198165446 635.3003564877329,345.3431262755066 636.9146029150072,346.4518706297421 638.4815781926441,347.5727566802291 640.0009441322852,348.7052874850299 641.4723887290733,349.84896571307615" />
<polyline stroke="black" fill="none" points="382.54344921598636,349.8410050837323 382.9058592754616,349.55033008870623 384.38980180877604,348.4095045965886 385.9215870071714,347.2799559535998 387.500896074525,346.1621814231812 389.12738397351205,345.05667778831616 390.8006792184531,343.9639409957921 392.52038369203524,342.88446579318236 394.28607248682556,341.81874535892524 396.09729377246526,340.76727092590477 397.953568689409,339.7305313989584 399.85439127003934,338.7090129667663 401.7992283879512,337.70319870859794 403.7875197361664,336.7135681964173 405.8186778349914,335.7405970928695 407.8920880701934,334.784756745695 410.0071087621152,333.84651377913997 412.1630712663075,332.9263296829482" />
<polyline stroke="black" fill="none" points="464.41466005637324,334.0163798630713 467.7553195705794,333.5979910261194 471.1160386750248,333.2098811333706 474.49532610328373,332.85228388276386 477.8916744960746,332.52541518702805 481.30356165359143,332.2294728990372 484.7294518145341,331.96463655905677 488.16779695965124,331.7310671644901 491.6170381375339,331.52890696268327 495.07560681032817,331.3582792672926 498.54192621697274,331.2192882986648 502.0144127515128,331.1120190486207 505.4914773539927,331.0365371699749 508.97152691139223,330.99288889106515 512.4529656660363,330.98110095550146 515.9341966288879,331.0011805872853 519.4136229951152,331.0531154813839 522.8896495593184,331.1368738197841 526.3606841278021,331.2524043129862 529.8251389252897,331.39963626683306 533.2814319934919,331.5784796745121 536.7279885789692,331.7888253335 540.1632425077614,332.0305449871636 543.5856375442986,332.3034914906684 546.9936287321585,332.607499000787 550.3856837142928,332.94238318914523 553.7602840304058,333.30794147838645 557.1159263892455,333.7039533006817 560.4511239136383,334.13018037796405 563.7644073561893,334.5863670232153 567.0543262836534,335.0722404620875 570.3194502280825,335.5875111740999 573.5583698029507,336.13187325260964 576.7696977825656,336.7050047827187 579.9520701431826,337.3065682362442 583.1041470643498,337.93621088284897 586.2246138891257,338.5935652164004 589.3121820419348,339.27824939560173 592.3655899029363,339.9898676979189 595.3836036379138,340.7280109858069 598.3650179828062,341.49225718422736 601.3086569821298,342.28217176843447 604.2133746806619,343.0973082610036 607.0780557678779,343.93720873706656 609.9016161747584,344.8014043367218" />
<polyline stroke="black" fill="none" points="491.6297529147371,354.7369610172939 493.13432759850014,354.6655132608778 496.9978584837923,354.51640161997415 500.86852834273225,354.40131628024557 504.74449808409827,354.3203317349079 508.62392358659537,354.27350044217803 512.5049574464015,354.2608527516278 516.3857507312384,354.28239686154313 520.2644547374808,354.33811880740075 524.1392227468106,354.42798248149495 528.0082117789243,354.5519296836602 531.8695843368151,354.7098802029561 535.721510141173,354.90173193009605 539.5621678504907,355.1273610003225 543.3897467635054,355.38662196634834 547.2024485006681,355.67934800091007 550.9984886614061,356.0053511283964 554.7760984540213,356.36442248494666 558.5335262951637,356.75633260633947 562.2690393759163,357.18083174292224 565.9809251916429,357.6376502007696 569.6674930328653,358.12649870819246 573.3270754345695,358.6470688066643 576.9580295814699,359.199033265174 580.5587386669063,359.78204651696365 584.1276132031942,360.39574511756416 587.6630922814043,361.0397482229973 591.1636447787023,361.71365808697635" />
<polyline stroke="black" fill="none" points="506.6409184528508,384.45262519877474 508.38037959559585,384.43268776108096 512.5413849825139,384.4198127859826 516.7021257294119,384.44174402942616 520.8605682257838,384.4984667324566 525.0146811474392,384.5899427342301 529.1624374747233,384.71611052828325 533.3018165017666,384.8768853531419 537.4308058325917,385.0721593170154 541.547403359958,385.30180155623015 545.6496192228775,385.5656584269625 549.7354777388214,385.86355372974026 553.8030193067178,386.19528896609233 557.8503022769514,386.56064362664233 561.875404784685,386.959375509858 565.876426542958,387.39122107058745 569.8514905921521,387.8558957974427 573.7987450025648,388.3530946180126 577.7163645269961,388.8824923308257 581.6025522004202,389.44374406291877" />
<polyline stroke="black" fill="none" points="512.5594317187757,420.5013230928399 516.8588619386434,420.52254266691006 521.1558874769881,420.57742446299136 525.4483829940976,420.66593088545505 529.7342277537072,420.78800134031343 534.0113077714879,420.943552326562 538.2775179491595,421.13247756187417 542.5307641897189,421.3546481422927 546.7689654893427,421.6099127354634 550.9900560016117,421.8980978068641 555.1919870698008,422.2190078783909 559.3727292230965,422.57242581857537 563.5302741327324,422.95811316362045 567.6626365241766,423.3758104683633 571.7678560416599,423.8252376861936 575.8439990615051,424.30609457688536 579.8891604508917,424.8180611412286" />
<polyline stroke="black" fill="none" points="305.11995670848046,496.084292144576 305.16764198054415,495.4899429037961 305.34536678940026,494.0972957675439 305.5898939399609,492.70182101089284 305.90175272542496,491.30397393369105" />
<polyline stroke="black" fill="none" points="506.48405521600296,461.0659781543025 508.27442749790833,461.04823119021955 512.5572325602539,461.03677073520186 516.8397622313724,461.05629247481585 521.1199002934713,461.10678306115193 525.3955329541964,461.18820798216734 529.6645509875569,461.30051161361604 533.9248518651422,461.4436173026671 538.1743418731154,461.6174274829723 542.4109382105266,461.8218238208568 546.6325710645507,462.05666739221977 550.8371856583431,462.32179888964356 555.022744267303,462.61703885913084 559.1872281996482,462.9421879658047 563.3286397373354,463.29702728783155 567.445004033497,463.68131863775125 571.5343709627244,464.094804910329 575.5948169206903,464.5372104559749 579.624446569779,465.0082414787172 583.6213945275849,465.50758645765427" />
<polyline stroke="black" fill="none" points="305.8646221009388,535.6897556429661 305.8038251418325,535.1603274671455 305.7223871717865,533.8920355275058 305.70524443997357,532.6195723587396 305.75299254906304,531.3433236451899 305.8662107637574,530.0636835512074 306.04546109825895,528.7810547062503 306.2912873883544,527.4958481789796 306.6042143490368,526.2084834399128 306.98474661866385,524.91938831221 307.2454261983189,524.1695838271304" />
<polyline stroke="black" fill="none" points="490.450770582427,504.5073309772096 492.0422881690411,504.4507264553489 496.12922989809897,504.3325901525913 500.2238812154712,504.24140944386943 504.3242562624055,504.1772451571493 508.4283635434067,504.1401401298613 512.5342078843239,504.1301191463624 516.6397923980376,504.1471889017238 520.7431204536858,504.1913379919456 524.8421976453619,504.2625369306241 528.935033756213,504.36073819202653 533.0196447138884,504.4858762804538 537.0940545333164,504.63786782569974 541.1562972428322,504.8166117043429 545.2044187897409,505.02198918653784 549.2364789214683,505.25386410790327 553.2505530385436,505.51208306603564 557.2447340157497,505.7964756411147 561.2171339878956,506.1068546400015 565.1658860967809,506.44301636317175 569.0891461960603,506.8047408937673 572.9850945108594,507.1917924079972 576.851937249146,507.60391950606555 580.6879081620223,508.0408555627585 584.491270050278,508.50231909677666 588.2603162147171,508.9880141578596 591.9933718479576,509.49763073071335 595.6887953655929,510.03084515471824" />
<polyline stroke="black" fill="none" points="314.0592575002396,574.2316240113544 313.9189400317174,573.8012932734929 313.6191754131502,572.6955268442995 313.3791691707238,571.585008172425 313.19952586532884,570.4700519427378 313.0808370668982,569.3509800565655 313.0236805628408,568.2281216430663 313.0286195505571,567.101813062496 313.0962018146761,565.9723979010183 313.2269588897102,564.8402269566938 313.4214052088943,563.705658216296 313.68003724003825,562.5690568225972 314.00333260929074,561.4307950317726 314.3917492137831,560.2912521605786 314.8457243241878,559.1508145229618 315.36567367830196,558.009875355768 315.95199056683225,556.8688347332239 316.6050449126356,555.7280994698777 317.3251823447364,554.5880830116947" />
<polyline stroke="black" fill="none" points="459.1981650370594,549.871563665922 460.41524139945204,549.7645213184484 464.03394135789665,549.4695005861057 467.67498453469534,549.1958005455887 471.33671386036104,548.9435927957862 475.0174534095923,548.713035922619 478.7155098617531,548.5042752861157 482.42917399436675,548.3174428243619 486.15672220693773,548.1526568748217 489.8964180723201,548.0100220134858 493.64651391275555,547.8896289122617 497.40525239762775,547.7915542149724 501.1708681599042,547.7158604322849 504.94158942817575,547.6625958558417 508.71563967115225,547.6317944918175 512.4912392514304,547.6234760140761 516.266607085319,547.6376457370494 520.0399623054866,547.6742946084072 523.8095259231862,547.7333992215415 527.5735224868165,547.8149218478279 531.3301817335837,547.9188104885831 535.077740231062,548.0449989465807 538.8144430054749,548.1934069169404 542.5385451535693,548.3639400971533 546.2483134350077,548.5564903159584 549.9420278422691,548.7709356807356 553.6179831451219,549.0071407430379 557.274490406819,549.2649566818362 560.9098784692555,549.5442215040107 564.5224954044306,549.8447602615771 568.1107099296679,550.1663852851043 571.6729127841596,550.5088964327331 575.2075180645285,550.8720813541801 578.7129645172278,551.255715769074 582.1877167857363,551.6595637589409 585.630266610647,552.0833780721335 589.0391339808889,552.5269004409677 592.4128682344741,552.9898619103142 595.7500491073126,553.4719831768723 599.0492877287882,553.9729749383354 602.3092275629481,554.4925382516469 605.5285452943151,555.0303648995339 608.7059516574833,555.5861377644986 611.840192209822,556.159531209445 614.9300480467627,556.7502114641109 617.9743364592999,557.3578370164834" />
<polyline stroke="black" fill="none" points="696.3842826140356,596.9002703679964 696.6472321101191,597.8638100917053 696.85065916775,598.8259419046094 696.994980600554,599.7863553960583 697.0806304223003,600.7447457357734 697.1080591017463,601.7008137142085 697.0777328266919,602.6542657752748 696.990132778011,603.6048140416813 696.84575441438,604.5521763331477 696.6451067683647,605.4960761777492 696.3887117544787,606.4362428166506 696.0771034897747,607.3724112024945 695.7108276274831,608.304321991702 695.2904407041622,609.2317215309496 694.8165095007785,610.1543618380808" />
<polyline stroke="black" fill="none" points="329.05504978968645,609.9147581836293 328.59499596011403,608.9908559495015 328.1886348405762,608.0622584648079 327.8365306070992,607.1292151852317 327.53923702641373,606.1919812431108 327.29729681337267,605.2508174651032 327.1112409745434,604.3059903842203 326.9815881384046,603.357772245967 326.9088438726252,602.4064410083274 326.8934999889517,601.4522803353359 326.9360338362784,600.4955795839699 327.0369075825263,599.5366337841076 327.19656748600795,598.5757436112902 327.4154431570089,597.6132153520348 327.6939468103684,596.6493608614446 328.03247250989807,595.6844975128718 328.43139540553193,594.7189481393868 328.89107096415523,593.7530409668226 329.41183419511697,592.7871095381597 329.9939988714868,591.821492629036 330.63785674817126,590.856534154166 331.34367677806176,589.8925830644696 332.111704327442,588.929993234719 332.9421603919341,587.9691233415253 333.83524081432193,587.0103367315015 334.79111550563584,586.054001279448 335.80992767094097,585.1004892364297 336.8917930413151,584.1501770676233 338.0367991135541,583.2034452798367 339.24500439918603,582.260678238617 340.5164376844177,581.3222639748869" />
<polyline stroke="black" fill="none" points="401.7495543943743,600.5626960063644 404.15843489161114,599.9979187760401 406.61204581627675,599.4448540040804 409.1095642368938,598.9037903027403 411.6501360259929,598.3750121247255 414.2328761337779,597.8587994792587 416.8568689040019,597.3554276486361 419.5211684323375,596.8651669057771 422.2247989674363,596.3882822332757 424.96675535477203,595.9250330444715 427.74600352326814,595.4756729070614 430.5614810146088,595.0404492697801 433.4120975550301,594.6196031926816 436.29673566928625,594.2133690815484 439.2142513363792,593.821974426965 442.16347468653646,593.4456395485826 445.1432107388136,593.0845773451019 448.152240178595,592.7389930504961 451.1893201741574,592.4090839969876 454.2531852313592,592.0950393852861 457.3425480854112,591.7970400625823 460.4561006285861,591.5152583087843 463.59251487262054,591.2498576314651 466.75044394446786,591.0009925699798 469.92852311396393,590.7688085091885 473.12537085187665,590.5534415032115 476.3395899167222,590.355018109612 479.56976846864603,590.1736552343926 482.8144812085879,590.0094599881595 486.07229054087486,589.8625295537904 489.3417477573153,589.7329510659151 492.6213942408048,589.6208015024913 495.9097626863924,589.5261475887312 499.2053783377063,589.4490457136061 502.5067602365891,589.389541859128 505.8124224837529,589.3476715425755 509.1208755082311,589.3234597718032 512.4306273433759,589.3169210137396 515.7401849071321,589.3280591761512 519.0480552843021,589.356867602715 522.3527470085132,589.4033290814114 525.6527713415983,589.4674158662173 528.9466435481073,589.5490897120485 532.2328841626866,589.6483019228667 535.5100202480787,589.7649934128357 538.77658664153,589.8990947803818 542.0311271874244,590.0505263949831 545.2721959540075,590.2191984964786 548.4983584321096,590.4050113066664 551.7081927138347,590.6078551529245 554.9002906492393,590.8276106035671 558.0732589790952,591.0641486146194 561.2257204418953,591.3173306876706 564.3563148533462,591.5870090384415 567.4637001566629,591.8730267756795 570.5465534420746,592.1752180899767 573.6035719340341,592.4934084520813 576.6334739447179,592.8274148202613 579.6349997925004,593.1770458562589 582.6069126841809,593.5421021493624 585.5479995598502,593.9223764481051 588.4570718993743,594.317653899095 591.3329664895907,594.7277122924663 594.174546151405,595.1523223134338 596.9807004260922,595.5912477994303 599.7503462202038,596.0442460022982 602.4824284085961,596.5110678550045 605.1759203951922,596.9914582423485 607.8298246312025,597.4851562751305 610.4431730906252,597.9918955672513 613.0150277029527,598.5114045152172 615.5444807431098,599.0434065795291 618.0306551787453,599.5876205674392 620.4727049750926,600.1437609165704 622.8698153577092,600.7115379788975 625.2212030334914,601.290658304603 627.5261163704465,601.8808249253306 629.7838355367853,602.4817376363706 631.9936725999778,603.0930932773274 634.1549715864884,603.714586010831 636.267108502973,604.3459075988716 638.3294913197935,604.9867476763507 640.3415599177587,605.6367940214603 642.3027859990635,606.2957328225192 644.2126729634479,606.9632489409091 646.0707557506457,607.6390261697793 647.876600650238,608.322747488199 649.6298050800642,609.0140953104614 651.3299973343782,609.7127517302591 652.976836302968,610.4183987594719 654.5700111624844,611.1307185613258 656.1092410412421,611.8493936777027 657.5942746587784,612.5741072503984 659.024889941467,613.3045432361474 660.4008936154903,614.0403866152487 661.7221207784845,614.7813235936501 662.9884344511706,615.5270417983628 664.1997251102829,616.2772304660987 665.3559102041007,617.0315806250392 666.4569336518852,617.7897852696632 667.5027653285043,618.5515395285757 668.493400535522,619.3165408252991 669.4288594600039,620.0844890320003 670.309186622279,620.855086616147 671.1344503138688,621.6280387800953 671.9047420267739,622.4030535936307 672.6201758752817,623.1798421194937 673.2808880114313,623.9581185319355 673.887036035239,624.7376002283618 674.4387984007599,625.5180079341338 674.9363738190267,626.299065800605 675.3799806588729,627.0805014964852 675.7698563466147,627.8620462926298 676.1062567655249,628.643435140363 676.3894556560047,629.4244067434512 676.6197440173125,630.2047036238508 676.7974295116793,630.9840721813591 676.922835871597,631.7622627473078 676.9963023110331,632.5390296324395 677.018182941282,633.3141311691161 676.9888461921321,634.0873297480099 676.9086742389823,634.8583918494344 676.7780624365128,635.6270880694718 676.5974187594702,636.3931931410636 676.3671632510973,637.1564859502225 676.0877274796976,637.9167495475376 675.7595540037908,638.6737711551361 675.3830958462815,639.4273421692732 674.9588159780303,640.1772581587153 674.4871868111787,640.9233188590906 673.968689702556,641.6653281633706 673.403814467455,642.4030941086545" />
<polyline stroke="black" fill="none" points="350.5959774176383,642.3970027765527 350.44476613360143,642.2115429125695 349.8919111072404,641.4726545797469 349.3855624469868,640.7295724395844 348.9262078134108,639.9824895318326 348.5143262831146,639.2316030441546 348.1503878597836,638.4771143243966 347.8348529749407,637.7192288891156 347.56817197870083,636.9581564281956 347.35078462086,636.1941108053865 347.1831195226798,635.4273100545921 347.06559363976606,634.6579763717433 346.9986117164708,633.8863361020836 346.98256573228423,633.1126197227039 347.0178343407167,632.3370618201568 347.1047823012078,631.5599010629912 347.24375990463614,630.7813801690412 347.43510239303964,630.0017458673146 347.6791293741945,629.2212488543242 347.97614423173724,628.4401437447116 348.3264335315546,627.6586890160169 348.73026642519966,626.8771469474544 349.187894051135,626.0957835525572 349.6995489346377,625.3148685055633 350.26544438723977,624.5346750614201 350.8857739066151,623.7554799692955 351.56071057785795,622.977563379486 352.2904064771363,622.2012087436281 353.07499207873485,621.4267027081241 353.91457566654003,620.6543350007066 354.80924275104667,619.8843983100733 355.7590554930018,619.1171881585401 356.76405213482735,618.3530027676698 357.8242464409917,617.5921429168457 358.9396271485275,616.8349117947755 360.11015742891345,616.0816148439253 361.33577436256513,615.332559597893 362.61638842718946,614.5880555117549 363.95188300128575,613.848413785425 365.342113884079,613.1139471800914 366.7869088331889,612.384969827806 368.2860671213414,611.6617970343234 369.8393591134372,610.9447450753017 371.44652586529037,610.2341309859962 373.1072787453456,609.5302723445972 374.8212990806818,608.833487049378 376.588237828593,608.144093089844 378.4077152750268,607.4624083120858 380.2793207611407,606.7887501785669 382.2026124392155,606.1234355225868 384.17711705913325,605.4667802976885 386.20232978660414,604.8190993222919 388.2777140542805,604.180706019857 390.4027014468645,603.5519121548995 392.57669162126734,602.9330275651979 394.7990522628271,602.3243598905531 397.06911907854374,601.7262142984738 399.38619582822355,601.1388932071848 401.7495543943743,600.5626960063644" />
<polyline stroke="black" fill="none" points="420.4048845149234,635.5622521128329 422.43057381090006,635.1399911609919 424.49180656129283,634.7267100820476 426.5878942290364,634.3226101865919 428.718125646909,633.9278895599481 430.8817672698574,633.5427428829469 433.0780634551462,633.1673612536031 435.30623677039307,632.8019320099859 437.56548832949517,632.4466385545726 439.85499815639463,632.101660180384 442.1739255765723,631.7671718991963 444.52140963609924,631.4433442721299 446.8965695480152,631.1303432429119 449.2985051657431,630.8283299741117 451.7262974831864,630.5374606866444 454.17900916109556,630.2578865028374 456.65568507923,629.9897532933509 459.15535291377756,629.7332015282389 461.6770237394376,629.4883661324347 464.2196926555103,629.2553763459363 466.7823394352788,629.0343555889618 469.3639291979108,628.8254213323406 471.96341310205275,628.6286849733925 474.57972906023156,628.4442517175431 477.21180247312947,628.2722204659119 479.8585469827441,628.1126837090992 482.5188652433971,627.9657274273869 485.19164970951044,627.831430997559 487.875783439022,627.7098671065288 490.5701409112743,627.6011016719566 493.2735888581691,627.5051937700166 495.98498710734697,627.4221955704683 498.703189436117,627.3521522791646 501.42704443483547,627.2951020881192 504.155396378404,627.2510761332373 506.88708610453733,627.2200984597998 509.62095189743206,627.2021859957717 512.355830375453,627.1973485329942 515.0905573814433,627.205588716298 517.8239688742563,627.2269020405621 520.5549018201036,627.2612768557235 523.2821950823186,627.3086943797282 526.00469030813,627.3691287193953 528.721232811058,627.4425468991499 531.4306724475525,627.5289088975642 534.1318644865069,627.6281676916303 536.8236704703047,627.740269308671 539.504959066077,627.8651528857779 542.1746069058743,628.002750736655 544.831499414487,628.1529884257269 547.474531623683,628.3157848493568 550.1026089716647,628.4910523240076 552.7146480865889,628.6786966811633 555.3095775530335,628.8786173688168 557.8863386603413,629.0907075593173 560.4438861318166,629.3148542633586 562.9811888338014,629.5509384498797 565.4972304637068,629.7988351716372 567.9910102161334,630.058413696202 570.4615434262639,630.3295376421225 572.9078621897728,630.6120651199881 575.3290159585518,630.9058488781226 577.7240721116135,631.2107364526273 580.0921165005886,631.5265703214915 582.4322539693019,631.8531880624812 584.7436088469627,632.190422514514 587.0253254145769,632.5381019422265 589.2765683442394,632.8960502034352 591.4965231110358,633.2640869191958 593.6843963773342,633.64202764616 595.8394163493158,634.029684050932 597.9608331056459,634.4268640861294 600.0479188982507,634.8333721678518 602.0999684252184,635.2490093542657 604.1162990759011,635.6735735250159 606.0962511483492,636.1068595611792 608.039188039261,636.54865952548 609.9444964066844,636.9987628424917 611.811586305754,637.4569564785558 613.6398912977977,637.923025121156 615.4288685331907,638.3967513574905 617.1779988083778,638.877915851995 618.8867865975291,639.3662975225743 620.5547600593304,639.8616737153135 622.1814710194475,640.3638203774399 623.7664949292387,640.8725122283257 625.309430801321,641.3875229283235 626.809901122626,641.908625245238 628.2675517456072,642.4355912182493 629.6820517582873,642.9681923191098 631.0530933338557,643.5061996104487 632.3803915605441,644.049383901028 633.6636842525312,644.5975158978036 634.9027317426346,645.1503663546545 636.0973166575704,645.7077062176556 637.2472436765627,646.2693067667797 638.3523392740988,646.8349397539184 639.4124514476326,647.404377537134 640.4274494310375,647.97739321105 641.3972233946181,648.5537607333088 642.3216841324859,649.1332550470298 643.2007627381059,649.7156521992113 644.0344102688127,650.3007294550281 644.8225974000935,650.8882654079894 645.5653140704267,651.4780400859249 646.262569117455,652.0698350527804 646.9143899062648,652.6634335062088 647.5208219505287,653.258620370955 648.0819285272574,653.8551823880341 648.5977902858929,654.4529081997177 649.0685048524597,655.0515884303434 649.4941864294731,655.6510157629723 649.8749653922916,656.2509850119296 650.2109878825739,656.8512931912585 650.5024153994918,657.4517395791378 650.749424389325,658.0521257783073 650.9522058340449,658.6522557725563 651.1109648394756,659.2519359793339 651.2259202235998,659.8509752985439 651.2973041055516,660.449185157592 651.3253614958242,661.0463795527562 651.3103498881921,661.642375086955 651.2525388538294,662.2369910039924 651.1522096380822,662.8300492193595 651.009654760334,663.421374347676 650.8251776173747,664.0107937268599 650.5990920906723,664.5981374391107 650.331722157915,665.1832383287971 650.0234015091735,665.7659320173409 649.6744731680172,666.3460569151898 649.2852891178878,666.9234542309719 648.8562099340211,667.497967977927 648.3876044211834,668.0694449777109 647.8798492574721,668.6377348616661 647.3333286444071,669.202690069657 646.7484339635239,669.7641658465631 646.1255634396598,670.322020236527" />
<polyline stroke="black" fill="none" points="378.35943481362494,670.7323058605716 377.7087300565521,670.1772202698435 377.09570232774706,669.6184100707889 376.5207547020285,669.0560151533522 375.98428365560255,668.4901782010968 375.48667873441303,667.9210446985569 375.0283222156686,667.3487629364143 374.6095887627256,666.7734840144049 374.230845073521,666.1953618418588 373.89244952277244,665.61455313578 373.59475179817707,665.0312174163679 373.3380925308628,664.4455169998857 373.1228029203662,663.8576169887824 372.9492043544278,663.267685258971 372.81760802392085,662.6758924441723 372.7283145332474,662.0824119172303 372.681613506557,661.4874197683079 372.67778319016674,660.8910947798756 372.7170900515797,660.2936183984025 372.7997883755246,659.6951747026671 372.92611985745754,659.095950368604 373.0963131949906,658.4961346306043 373.31058367773437,657.8959192391967 373.5691327760609,657.2954984150315 373.8721477293184,656.6950687990989 374.21980113404663,656.0948293991162 374.6122505327669,655.4949815320197 375.0496380039381,654.8957287625053 375.5320897536926,654.2972768375666 376.0597157099837,653.6998336169794 376.6326091197983,653.1036089996946 377.2508461501026,652.5088148461031 377.91448549321143,651.9156648961405 378.6235679772841,651.3243746832131 379.3781161826686,650.7351614439242 380.17813406482793,650.1482440235959 381.02360658460094,649.5638427775831 381.9144993465551,648.9821794683855 382.85075824620685,648.4034771585741 383.8323091268923,647.8279600995528 384.85905744707554,647.255853616189 385.9308879588963,646.687383987351 387.0476643987557,646.1227783224039 388.2092291907485,645.5622644337212 389.4154031637458,645.0060707052824 390.665985282938,644.4544259574315 391.96075239663793,643.9075593078887 393.2994589991475,643.3657000291091 394.6818370104773,642.8290774020985 396.10759557370375,642.2979205668048 397.576420870737,641.7724583692119 399.0879759572575,641.2529192052766 400.6419006175645,640.7395308618557 402.2378112400618,640.2325203547829 403.875300714086,639.7321137642655 405.5539383487556,639.238536067779 407.27326981450074,638.7520109706483 409.0328171078989,638.2727607345157 410.83207854041467,637.8010060039019 412.6705287516106,637.3369656310778 414.54761874735544,636.8808564994745 416.46277596352627,636.4328933458627 418.41540435565355,635.9932885815487 420.40488451492337,635.5622521128329" />
<polyline stroke="black" fill="none" points="431.26607758990747,320.8588259009796 430.4425918495251,321.2062341793662 428.53256269680344,322.0833690986807 426.63866396561554,323.02559843117217 424.7616783925848,324.03312917444816 422.9023938435716,325.1061438280642 421.0616029191167,326.2447996086499 419.2401025402554,327.44922766608823 417.438693514611,328.71953230208317 415.6581800827158,330.05579019250246 413.899369444547,331.45804961493434 412.1630712663075,332.92632968294816 410.45009716752537,334.46061958859707 408.7612601885927,336.0608778547485 407.80896850673275,337.01446746317913" />
<polyline stroke="black" fill="none" points="396.8327749785522,589.266618316858 398.43326574826676,593.0663864459456 400.07247246283026,596.8323091091409 401.7495543943743,600.5626960063644 403.4636500199892,604.2558853042843 405.2138779318611,607.9102450017222 406.99933776752647,611.5241742441326 408.81911115827444,615.0961045850969 410.6722626936958,618.6245011929211 412.55784090036445,622.1078640005999 414.47487923262054,625.5447287975669 416.4223970734222,628.9336682618268 418.3994007432334,632.2732929312309 420.4048845149234,635.5622521128329 422.43783163266846,638.7992347294354 424.49721533286777,641.9829701026091 426.58199986511204,645.1122286716394" />
<polyline stroke="black" fill="none" points="454.3820639536146,312.69026141321405 452.8805931448223,313.2170834366733 451.38897952635864,313.8103353325108 449.9078275050343,314.47040717245 448.4377473472468,315.1976665301739 446.97935491028636,315.99245755787865 445.5332713565458,316.8551000565836 444.10012285041944,317.78588854155 442.68054023770196,318.78509130423447 441.2751587073333,319.8529494722769 439.88461743536254,320.9896760690949 438.509559211046,322.19545507473094 437.1506300450253,323.47044048966944 435.80847875957585,324.81475540340875 434.483756560953,326.22849106964486 433.1771165939107,327.71170598998594 431.88921347850817,329.2644250081828 430.6207028293718,330.8866384169201" />
<polyline stroke="black" fill="none" points="422.2153742563706,578.1055337072006 422.71957809736705,579.8116448782735 423.93159238057956,583.7779870141942 425.1737866418189,587.71198220363 426.44548713643485,591.6118080583992 427.74600352326814,595.4756729070614 429.07462965591225,599.3018173443178 430.4306443899249,603.0885157194238 431.81331240415517,606.8340775611969 433.2218850343344,610.5368489374137 434.6556011170716,614.1952137465929 436.1136878423912,617.80759494038 437.5953616129519,621.37245567496 439.09982890810306,624.8883003901484 440.62628715094297,628.3536758150252 442.1739255765723,631.7671718991963 443.7419260997641,635.1274226689865 445.3294641803021,638.4331070080809 446.9357096842838,641.6829493623478" />
<polyline stroke="black" fill="none" points="474.7437590779689,308.1894299654555 473.76587219005563,308.60192701835416 472.79404929378427,309.0822730259526 471.8286912291512,309.63094391612526 470.8702031860016,310.2483930724418 469.9189945258276,310.93505030269085 468.97547859126047,311.69132079787994 468.04007250307654,312.51758408318676 467.11319694455744,313.41419296243237 466.195275933067,314.38147245773223 465.28673657873304,315.4197187460744 464.3880088301452,316.52919809466164 463.4995252070105,317.71014579694327 462.621720519734,318.9627651113485 461.7550315759258,320.2872262048208 460.8998968738645,321.68366510333135 460.0567562829849,323.1521826516352 459.22605071148774,324.6928434846068 458.4082217612115,326.30567501256627 457.6037113699403,327.99066642307776 456.8129614413625,329.74776770176607 456.0364134629363,331.5768886747543" />
<polyline stroke="black" fill="none" points="450.77439873748284,557.4004205876117 451.06937679131795,559.1926216763012 451.782040788593,563.3682760211034 452.51598220104137,567.5192960814617 453.27078967789157,571.643663959946 454.04603898306834,575.7393880571195 454.84129351119105,579.804504976015 455.6561048185717,583.8370813682428 456.4900131679167,587.835215718264 457.3425480854112,591.7970400625823 458.2132289288445,595.7207216408385 459.10156546542055,599.6044644760213 460.00705845788656,603.4465108812522 460.9292002576104,607.2451428908522 461.86747540323495,610.9986836136474 462.8213612235471,614.7054985067238 463.7903284432054,618.3639965681061 464.7738417899895,621.9726314470845 465.7713606022521,625.5299024711758 466.7823394352788,629.0343555889618 467.80622866529046,632.4845842282966 468.8424750898548,635.8792300696264 469.890522523509,639.2169837344102" />
<polyline stroke="black" fill="none" points="496.5836096272382,305.6768272280016 496.1773435392656,306.02476434176026 495.77351417452496,306.4413110565397 495.3722896641167,306.92699259182916 494.97384007303583,307.48231167551864 494.57833732563086,308.10774745032575 494.18595512567003,308.80375436859913 493.79686887092976,309.5707610770439 493.4112555622287,310.40916929301443 493.02929370684126,311.3193526741192 492.6511632162356,312.301655682984 492.27704529809023,313.3563924491179 491.9071223425586,314.48384562992794 491.54157780276086,315.6842652730229 491.18059606949834,316.9578676820461 490.8243623401979,318.3048342883681 490.4730624821113,319.72531053106263 490.126882889807,321.2194047476771 489.78601033701244,322.78718707839255 489.45063182287765,324.42868838624577 489.120934412752,326.1438991961656 488.79710507358146,327.93276865563837 488.47933050405607,329.7952035198857 488.16779695965124,331.7310671644901 487.86269007273205,333.74017862845585 487.564194667905,335.82231169073 487.27249457282414,337.9771939832438 486.9877724246789,340.2045061435574 486.71020947261064,342.50388101020167 486.4399853763261,344.8749028638181 486.1772780011966,347.3171067171878 486.03132554145344,348.7552966088937" />
<polyline stroke="black" fill="none" points="484.3849490028067,515.9823071831099 484.47069987720755,517.8436523562144 484.6817623249754,522.199696699296 484.90296632740746,526.5506981892048 485.13419349665406,530.8944361802087 485.375318386082,535.2286976605764 485.62620863815295,539.5512796147439 485.88672514294734,543.8599913631905 486.15672220693773,548.1526568748217 486.4360477315895,552.4271170467665 486.724543401336,556.6812319466161 487.0220448804533,560.9128830122783 487.328382018333,565.1199752047809 487.6433790626332,569.300439109534 487.96685487976544,573.4522329817555 488.29862318216215,577.573344731971 488.6384927617512,581.6617938477208 488.98626772905425,585.7156332478392 489.3417477573153,589.7329510659151 489.7047283310576,593.7118723597991 490.0750009984635,597.6505607442799 490.45235362696815,601.5472199443235 490.8365706614581,605.4000952665464 491.2274333844682,609.2074749868635 491.6247201777739,612.9676916525411 492.02820678478315,616.6791232971618 492.43766657314063,620.340194567291 492.8528707969669,623.9493777599178 493.2735888581691,627.5051937700166 493.69958856627255,631.0062129478539 494.1306363962399,634.4510558659291 494.5664977437615,637.8383939957056" />
<polyline stroke="black" fill="none" points="519.041826692708,305.2764294498854 519.2275171571576,305.61402972383405 519.4120998942507,306.02035869262386 519.5954979424317,306.495949519297 519.7776334469092,307.0413128890576 519.9584276937544,307.6569359056919 520.1378011464868,308.34328097601497 520.3156734851848,309.10078468389463 520.4919636481567,309.9298566555151 520.6665898762037,310.8308784176345 520.839469759501,311.804202250701 521.0105202871174,312.85015003878857 521.1796578991903,313.96901211841566 521.346798541762,315.1610461284107 521.5118577242852,316.426475863085 521.6747505797897,317.76549013106865 521.8353919277026,319.17824162226105 521.9936963393038,320.66484578543236 522.1495782057897,322.2253797191026 522.3029518089141,323.8598810784034 522.4537313941642,325.5683470007054 522.6018312464201,327.3507330528633 522.7471657680427,329.20695220299706 522.8896495593184,331.1368738197841 523.0291975011885,333.1403227022866 523.165724840173,335.21707814338254 523.2991472753982,337.3668730299014 523.4293810476194,339.5893929825881 523.5563430301271,341.88427553903614 523.6799508214131,344.25110938273315 523.8001228394606,346.68943362135496 523.9167784175198,349.19873711742764 524.0298379012131,351.7784578744462 524.1392227468106,354.42798248149495 524.2448556205052,357.1466456193629 524.3466604985096,359.933729631077 524.4445627677848,362.78846415969565 524.5384893272078,365.7100258561117 524.6283686889736,368.6975381595053 524.714131080021,371.75007115296467 524.7957085432668,374.86664149666063 524.873035038422,378.0462124408077 524.9460465421658,381.2876939204872 525.0146811474392,384.5899427342301 525.0788791616224,387.9517628080685 525.1385832033563,391.3719055465688 525.1937382977613,394.84907027214115 525.2442919698103,398.3819047537032 525.2901943356071,401.9690058255363 525.3313981913269,405.6089200969327 525.3678590995692,409.30014475297634 525.3995354728835,413.041128446542 525.426388654224,416.83027228132676 525.4483829940976,420.66593088545505 525.4654859241735,424.54641357492017 525.477668027126,428.4699856058419 525.484903102494,432.4348695142348 525.4871682283431,436.4392465416967 525.4844438185295,440.48125814514026 525.4767136753696,444.559007588407 525.4639650375376,448.6705616133221 525.4461886230151,452.8139521874716 525.4233786669383,456.9871783257131 525.3955329541964,461.18820798216734 525.3626528466486,465.4149800091844 525.3247433048463,469.6654061795335 525.2818129041568,473.9373732678306 525.2338738452048,478.22874518700047 525.1809419585627,482.53736517536197 525.1230367036377,486.86105802973344 525.060181161722,491.1976323797817 524.9924020231875,495.54488299867916 524.9197295688274,499.900593144995 524.8421976453619,504.2625369306241 524.7598436351446,508.6284817094581 524.6727084201243,512.9961904814215 524.5808363401321,517.3634243064366 524.4842751455858,521.7279447228394 524.3830759447138,526.0875161647565 524.2772931454248,530.4399083729506 524.1669843919589,534.7828987936733 524.0522104964778,539.1142749601061 523.9330353657597,543.4318368510412 523.8095259231862,547.7333992215415 523.6817520262152,552.0167939004239 523.5497863795503,556.2798720495446 523.4137044442286,560.5205063800051 523.2735843428595,564.736593320565 523.1295067612524,568.9260551337284 522.9815548466898,573.0868419751682 522.8298141030989,577.216933892362 522.6743722833892,581.3143427585424 522.5153192792258,585.3771141382977 522.3527470085132,589.4033290814114 522.1867493008674,593.3911058417833 522.0174217813559,597.3386015185449 521.8448617527894,601.2440136167513 521.6691680768424,605.1055815253127 521.4904410542871,608.9215879101107 521.3087823046149,612.6903600205278 521.1242946453231,616.4102709079069 520.9370819711362,620.0797405547409 520.747249133428,623.6972369136803 520.5549018201036,627.2612768557235 520.3601464361959,630.770427027236 520.16308998542,634.2233046157139 519.9638399529249,637.618578024474" />
<polyline stroke="black" fill="none" points="541.2170990451034,307.0082061638556 541.9854235872486,307.39041817256054 542.7490570715763,307.84083957897053 543.5076831236622,308.3599693639027 544.2609818392253,308.9482839814683 545.0086299246321,309.6062362985559 545.7503008473171,310.33425452382573 546.4856649962707,311.1327411277274 547.2143898527278,312.00207175514504 547.9361401711742,312.94259413236875 548.6505781707652,313.95462697018615 549.357363737234,315.03845886498317 550.0561546353413,316.1943471998338 550.7466067318982,317.4225170476533 551.428374229366,318.72316007857773 552.1011099100119,320.0964334738213 552.7644653905735,321.5424588483478 553.4180913873525,323.0613211847748 554.061637991634,324.653067781008 554.6947549552904,326.3177072141753 555.3170919864019,328.05520832350146 555.92829905469,329.86549921482674 556.5280267065261,331.74846628953196 557.1159263892455,333.7039533006817 557.6916507844571,335.7317604392446 558.2548541500078,337.8316434532847 558.805192670219,340.00331280304624 559.3423248139808,342.24643285487645 559.8659117002483,344.5606211169392 560.3756174704486,346.9454475196753 560.8711096672707,349.4004337439559 561.3520596192735,351.9250525998549 561.8181428307075,354.5187274589382 562.2690393759163,357.18083174292224 562.7044342976425,359.91068847150433 563.1240180085322,362.7075698720979 563.5274866950994,365.5706970541324 563.914542723378,368.49923975048216 564.2848950454613,371.4923161284911 564.6382596061002,374.5489926729401 564.9743597485042,377.6682841431792 565.2929266184667,380.8491536065058 565.5936995659142,384.09051254971496 565.876426542958,387.39122107058745 566.1408644975154,390.75008815090007 566.386779761546,394.1658720123586 566.6139484329492,397.6372805566508 566.8221567501507,401.1629718906131 567.0112014584096,404.7415549372782 567.1808901668744,408.3715901333504 567.3310416954212,412.05159021341194 567.4614864103099,415.7800210809247 567.572066547713,419.55530276583886 567.6626365241766,423.3758104683633 567.7330632330996,427.23987568819405 567.7832263263356,431.1457874382318 567.8130184800467,435.09179354155214 567.8223456439733,439.0761020101274 567.8111272733131,443.09688250352986 567.7792965424412,447.15226786558026 567.7268005397466,451.24035573664435 567.6536004429017,455.35921023901875 567.5596716739311,459.50686373259623 567.445004033497,463.68131863775125 567.3096018138723,467.88054932215005 567.1534838901289,472.1025040479567 566.9766837891299,476.3451069756905 566.7792497359726,480.60626022077935 566.5612446775975,484.8838459586607 566.3227462833412,489.1757285741003 566.0638469222766,493.47975685023135 565.7846536172576,497.7937661926684 565.4852879756467,502.1155808839156 565.1658860967809,506.44301636317175 564.8265984562963,510.773881526539 564.4675897675024,515.1059810425597 564.0890388200659,519.4371176779489 563.6911382963348,523.7650946283459 563.2740945656968,528.0877178488915 562.8381274574325,532.4027983794323 562.383470012591,536.708154659175 561.9103682154732,541.0016148256541 561.4190807053695,545.281018992929 560.9098784692555,549.5442215040107 560.3830445162021,553.7890931526106 559.8388735343083,558.0135233694209 559.2776715310115,562.2154223682653 558.6997554576734,566.392723247613 558.1054528193813,570.5433840431087 557.4951012709389,574.6653897269563 556.8690482000533,578.7567541501828 556.2276502987527,582.8155219240246 555.5712731240947,586.8397702368869 554.9002906492393,590.8276106035671 554.2150848059836,594.7771905436639 553.5160450198571,598.6866951863483 552.8035677388917,602.5543487989198 552.0780559571742,606.378416236839 551.3399187342934,610.1572043131844 550.5895707117861,613.8890630857508 549.8274316276726,617.5723870602809 549.0539258301648,621.2056163085795 548.2694817916057,624.7872375005378 547.474531623683,628.3157848493568 546.6695105949318,631.7898409695212 545.8548566515153,635.2080376473358 545.03100994224,638.5690565240865" />
<polyline stroke="black" fill="none" points="562.2271962088257,310.78620822374927 563.5400762388687,311.2648726028975 564.8445392542311,311.81057595566347 566.140052613505,312.42374428822234 567.42607825138,313.10478106758336 568.70207291562,313.85406625296844 569.9674884196459,314.6719553196319 571.2217719109331,315.55877827652773 572.4643661554117,316.5148386793097 573.694709838021,317.54041264023164 574.9122378795473,318.63574783659544 576.1163817698346,319.80106251947166 577.3065699174306,321.0365445244982 578.4822280156877,322.3423502866368 579.6427794253058,323.71860386084563 580.7876455732583,325.1653959506938 581.9162463680077,326.6827829470202 583.0280006308662,328.27078597880023 584.1223265433159,329.9293899784518 585.1986421100553,331.65854276386966 586.2563656374903,333.4581541395344 587.2949162273355,335.32809501909026 588.313714284945,337.268196571835 589.3121820419348,339.27824939560173 590.2897440926089,341.35800271854816 591.2458279436445,343.5071636323938 592.1798645764385,345.7253963596692 593.0912890214616,348.0123215575471 593.9795409439104,350.3675156608393 594.8440652398904,352.79051026672903 595.6843126423138,355.28079156380534 596.1510318682665,356.7443240366862" />
<polyline stroke="black" fill="none" points="601.4109150385381,522.114460119518 601.1371742494472,523.9308849867158 600.4633017956116,528.1801839362452 599.7568939487778,532.4232577468001 599.0183069180111,536.6580050580418 598.2479188190417,540.8823312676469 597.4461292675591,545.0941506582102 596.6133589406394,549.2913885073964 595.7500491073126,553.4719831768723 594.8566611293584,557.6338881756185 593.9336759335052,561.7750741933131 592.9815934562811,565.8935310995819 592.0009320628333,569.9872699050319 590.992227941108,574.0543246801149 589.9560344728313,578.0927544280191 588.892921582797,582.1006449079433 587.8034750680084,586.0761104052814 586.6882959082691,590.0172954454276 585.5479995598502,593.9223764481051 584.3832152338947,597.7895633193211 583.194585161241,601.617100978265 581.9827638453651,605.4032708166742 580.7484173051549,609.1463920884271 579.4922223092298,612.8448232273354 578.2148656035203,616.4969630913488 576.9170431338155,620.1012521316144 575.5994592649674,623.6561734850668 574.2628259984294,627.1602539894599 572.9078621897728,630.6120651199881 571.5352927678008,634.010223846872 570.1458479568431,637.3533934135181 568.7402625037694,640.6402840350843" />
<polyline stroke="black" fill="none" points="583.0612127079378,317.0471663403822 584.8430907486609,317.7328076636385 586.6119374126747,318.48396805669967 588.3670357366293,319.3009464223901 590.1076628585025,320.1840184975313 591.8330903507554,321.1334360117856 593.5425845724085,322.14942584378514 595.2354070402121,323.2321891758538 596.9108148190552,324.3819006486895 598.5680609317178,325.59870751743495 600.2063947880386,326.88272881062954 601.8250626335226,328.23405449358904 603.4233080173811,329.6527446378208 605.000372279942,331.1388285981377 606.5554950593315,332.6923041991881 608.0879148172747,334.3131369331687 609.5968693838134,336.0012591705415 611.081596520691,337.7565693856146 612.5413345030975,339.5789313988969 613.9753227194137,341.4681736381708 615.3828022885401,343.4240884202636" />
<polyline stroke="black" fill="none" points="624.9004704564686,565.6230136898004 624.3678328451022,567.3391771886505 623.0805433855411,571.3357204260319 621.7541659616039,575.3073442168023 620.3893862594207,579.2521911428007 618.9869130928719,583.1684259266669 617.5474776342886,587.05423708741 616.0718326179256,590.9078385532973 614.5607515179761,594.7274712291432 613.0150277029527,598.5114045152172 611.4354735683042,602.2579377751454 609.8229196491795,605.9654017503402 608.1782137152809,609.632159918661 606.5022198497782,613.2566097951767 604.7958175142719,616.8371841730851 603.0599006018059,620.3723523030217 601.2953764799375,623.8606210091782 599.5031650258679,627.3005357408366 597.68419765563,630.6906815581182 595.8394163493158,634.029684050932 593.9697726743015,637.3162101903042 592.0762268084036,640.5489691114533 590.1597465648671,643.7267128281685" />
<polyline stroke="black" fill="none" points="609.6520957752783,328.9234418234772 610.5512898751891,329.39967032104687 612.633331871991,330.5766854866154 614.6939167174112,331.8172040986867 616.7321756399128,333.12128019573686 618.7472365318034,334.4889420617445 620.7382244286183,335.92019155912624 622.7042620079922,337.4150034679434 624.6444701079586,338.9733248326646 626.5579682645804,340.595074317804 628.4438752687643,342.28014157379243 630.3013097420722,344.02838661447277 632.1293907312931,345.8396392076417" />
<polyline stroke="black" fill="none" points="644.2078861066607,588.0034050248544 643.4850346780254,589.6103844490364 641.7465497844331,593.3439023962299 639.9634822222299,597.04541984051 638.1367032658057,600.7132942491982 636.267108502973,604.3459075988716 634.3556169524958,607.9416676930637 632.4031701562819,611.499009439404 630.4107312480676,615.0163960841408 628.3792840004613,618.4923204021079 626.3098318522564,621.9253058403249 624.2033969179467,625.3139076135478 622.0610189814087,628.6567137502227 619.8837544757263,631.9523460874289 617.6726754511511,635.1994612135428 615.4288685331907,638.3967513574905 613.1534338728197,641.5429452236024 610.847484090801,644.6368087712289 608.5121432180863,647.6771459384191" />
<polyline stroke="black" fill="none" points="641.4723887290733,349.84896571307615 643.6320221957628,351.62283408763 645.7592408596921,353.4551887048664" />
<polyline stroke="black" fill="none" points="660.7282182747581,600.6462875267796 658.7254385375755,604.1749539796637 656.6723956145674,607.6702626770613 654.5700111624844,611.1307185613258 652.4192334588188,614.5548480346491 650.2210365913757,617.9412000852905 647.9764196203922,621.2883473841782 645.686405714688,624.5948873502024 643.3520412633779,627.8594431825829 640.9743949647266,631.0806648587903 638.5545568937631,634.2572300965699 636.0936375503129,637.3878452787177 633.5927668891317,640.4712463393433 631.0530933338557,643.5061996104487 628.4757827765027,646.4915026277515 625.8620175642732,649.4259848947806 623.212995475413,652.308508604366" />
<polyline stroke="black" fill="none" points="677.0076808335676,603.7875778591712 676.1444988741914,605.2425143211356 674.0668327425399,608.6188024283699 671.9334155357353,611.963324314108 669.7450993761183,615.2746934591313 667.5027653285043,618.5515395285757 665.2073228011782,621.7925093610443 662.8597089172566,624.9962679412084 660.4608878572972,628.1614993544741 658.0118501740906,631.2869077223202 655.5136120806303,634.3712181169531 652.9672147123042,637.4131774539655 650.3737233643993,640.4115553617274 647.7342267060646,643.3651450262867 645.0498359719123,646.2727640106081 642.3216841324859,649.1332550470298 639.5509250448542,651.9454868018737 636.738732584631,654.7083546112037 633.8862997607441,657.4207811867873" />
<polyline stroke="black" fill="none" points="692.4347975249375,599.2644444234087 691.6575010753411,600.686592313211 689.7762692616379,603.9903842273641 687.8339899240298,607.2675512066678 685.8313052915089,610.5167889849988 683.7688877183183,613.7368022640044 681.6474394182678,616.9263055630001 679.4676921707895,620.0840240661298 677.230406998867,623.208694465701 674.9363738190267,626.299065800605 672.5864110636214,629.3539002887294 670.1813652756927,632.3719741522741 667.7221106767422,635.3520784348827 665.2095487077942,638.2930198095132 662.6446075441777,641.1936213759719 660.028241584504,644.0527234470558 657.361430914365,646.8691843222545 654.645180745319,649.6418810479823 651.8805208297783,652.36971016333 649.0685048524597,655.0515884303434 646.2102097990908,657.6864535478622 643.306735303122,660.2732648479775 640.3592029712175,662.8110039741896" />
<polyline stroke="black" fill="none" points="697.7637283002798,431.98794331290924 697.7637283204219,431.98794334968005" />
<polyline stroke="black" fill="none" points="706.572045578104,582.6888675815599 706.024569733656,584.1050878135667 704.6786328290721,587.4031473638473 703.2683385761705,590.6835702678451 701.7939934753462,593.9451515989347 700.2559316358106,597.1866873200062 698.6545148715434,600.4069749171831 696.990132778011,603.6048140416813 695.2632027892266,606.7790071592572 693.4741702147362,609.9283602066704 691.623508256143,613.0516832545633 689.7117180028079,616.1477911761406 687.7393284063801,619.2155043210116 685.7068962338474,622.2536491935392 683.6150059988142,625.2610591350176 681.4642698707484,628.2365750089898 679.2553275619628,631.1790458889932 676.9888461921321,634.0873297480099 674.6655201301705,636.9602941488839 672.2860708133318,639.7968169349515 669.8512465434229,642.5957869201237 667.3618222600575,645.3561045776461 664.8185992909068,648.0766827267523 662.2224050789434,650.7564472164227 659.5740928867034,653.3943376054472 656.8745414776329,655.9893078379963 654.1246547746166,658.5403269138892 651.3253614958242,661.0463795527562 648.4776147680452,663.5064668512858 645.5823917177221,665.9196069327533 642.6406930399218,668.2848355880237" />
<polyline stroke="black" fill="none" points="680.3120198992585,633.355025836554 678.2544191321878,636.1586055115547 676.1397987183823,638.9290551392546 673.968689702556,641.6653281633706 671.741647949672,644.366384471697 669.459254157629,647.0311909679846 667.122113852847,649.6587221489193 664.7308573683814,652.2479606857084 662.2861398042139,654.7978980097614 659.7886409693821,657.3075349019383 657.2390653056342,659.7758820848169 654.6381417923083,662.2019608174172 651.9866238321606,664.584803491804 649.2852891178878,666.9234542309719 646.5349394791098,669.2169694874054 643.7364007096039,671.4644186416897 642.1064438234755,672.7247201093273" />
<polyline stroke="black" fill="none" points="363.79622257197786,657.2302617021816 366.2392376976908,659.6795474385374 368.7338810977559,662.0877170169069 371.2794820600129,664.4538141144596 373.87534603688766,666.776892209142 376.5207547020285,669.0560151533522 379.21496602485433,671.2902577506557 381.95721436333315,673.4787063349953 383.55477258799965,674.7052988403249" />
<polyline stroke="black" fill="none" points="316.47950086940807,581.4840584577896 317.67676475327187,584.7535159522665 318.9380677420858,588.0070534210539 320.2631890029286,591.243515053137 321.6518819800398,594.4617443500364 323.1038742259204,597.6605846751669 324.6188672476103,600.8388798128116 326.19653636863495,603.9954745363347 327.8365306070992,607.1292151852317 329.5384725703959,610.2389502505962 331.3019583669833,613.3235309685573 333.12655753566924,616.3818119212266 335.01181299282666,619.4126516446638 336.95724099794586,622.4149132433582 338.96233113791266,625.3874650106953 341.02654633038094,628.3291810548657 343.1493228465889,631.2389419296459 345.33007035394684,634.1156352694715 347.56817197870083,636.9581564281956 349.86298438895426,639.7654091209183 352.2138378983045,642.5363060682473 354.6200365903262,645.2697696423418 357.080858464106,647.9647325140742 359.5955556010067,650.6201383006295 362.16335435281115,653.234942212853 364.7834555513651,655.8081117016427 367.4550347398113,658.3386271026757 370.17724242547473,660.8254822787435 372.9492043544278,663.267685258971 375.770021807734,665.6642588741801 378.6387719193352,668.0142413876574 380.3089294317833,669.3331011578838" />
<polyline stroke="black" fill="none" points="306.896066101711,480.5576952712852 306.4123553914809,483.9174064648353 305.9924138343309,487.2946321776978 305.63662903130785,490.68829313930775 305.34536678940026,494.0972957675439 305.11897065064863,497.52053252288596 304.95776142837724,500.95688228016604 304.8620367512443,504.40521071792807 304.83207061581976,507.8643707253798 304.8681129484014,511.3332028268972 304.97038917678526,514.8105356240118 305.13909981270797,518.2951862547825 305.37442004568385,521.7859608704243 305.67649934895246,525.2816551290381 306.04546109825895,528.7810547062503 306.48140220418014,532.282935822549 306.98439275870965,535.7860657870617 307.5544756968056,539.2892035574981 308.1916664736009,542.7911003159413 308.8959527579623,546.2905000601462 309.66729414307997,549.7861402099666 310.50562187475043,553.2767522285031 311.41083859800756,556.7610622575329 312.38281812273704,560.2377917667471 313.4214052088943,563.705658216296 314.526415371928,567.1633757321042 315.69763470898715,570.6096557933946 316.9348197464733,574.0432079318225 318.2376973094713,577.4627404415983 319.6059644135687,580.8669610999438 321.0392881795476,584.2545778972004 322.537305771404,587.6242997758824 324.09962435811946,590.9748373779366 325.7258210995808,594.3049037994525 327.4154431570089,597.6132153520348 329.16800772822535,600.8984923300325 330.9830021080504,604.159459782796 332.8598837740896,607.3948482911114 334.7980804981289,610.6033947469444 336.7969904833198,613.7838431356089 338.85598252729824,616.9349453194575 340.9743962113381,620.0554618221804 343.1515421156015,623.1441626127826 345.3867020605076,626.1998278883025 347.6791293741945,629.2212488543242 350.0280491860128,632.2072285023291 352.4326587459423,635.1565823829278 354.8921277697796,638.0681393740092 357.40559880990486,640.9407424428452 359.9721876513881,643.7732494011868 362.5909837331558,646.5645336523922 365.26105059389215,649.3134849296342 367.98142634230953,652.0190100242376 370.7511241513778,654.6800335032086 373.5691327760609,657.2954984150315 376.43441709407057,659.8643669828137 379.34591866910023,662.3856212838871 382.30255633597017,664.8582639149776" />
<polyline stroke="black" fill="none" points="332.1595426291439,408.53030950460857 332.159542608763,408.53030954038235" />
<polyline stroke="black" fill="none" points="321.953405695754,561.6154461166127 322.48183735508474,563.1552826221807 323.7839572056954,566.7476622391082 325.15088819648565,570.3265935940137 326.58221897235984,573.8906339328943 328.0775051817492,577.4383425829238 329.63626958216,580.968281924868 331.25800217816357,584.4790183701859 332.9421603919341,587.9691233415253 334.6881692663867,591.4371742552997 336.4954217008993,594.8817555050141 338.3632787195509,598.3014594439995 340.2910697717406,601.6948873662035 342.27809306499546,605.0606504836743 344.3236159297115,608.397370899379 346.4268752155112,611.7036825739874 348.5870777188421,614.9782322852644 350.8034006413794,618.2196805787135 353.07499207873485,621.4267027081241 355.4009715389191,624.5979895646949 357.78043048994357,627.7322485934083 360.21243293589293,630.8282046953632 362.6960160207454,633.8846011147887 365.2301906591622,636.9002003094864 367.81394219341905,639.8737848034805 370.44623107559903,642.804158020685 373.1259935741227,645.6901450984301 375.8521425036421,648.5305936797303 378.6235679772841,651.3243746832131 381.43913818018837,654.0703830496716 384.29770016324426,656.7675384642488 387.19808065589893,659.4147860533076" />
<polyline stroke="black" fill="none" points="370.8737402161621,359.88499921000187 368.7507605993848,361.8867709742071 366.66456140169544,363.94412900695875 364.6160750676311,366.0567088846392 363.46548376802787,367.297503031705" />
<polyline stroke="black" fill="none" points="347.37484764048156,584.2676618923118 348.11412252898924,585.8174848746285 349.9022109664695,589.4221300410182 351.74665913506414,593.0010045953734 353.6467009204556,596.552577958612 355.6015394774872,600.0753337258546 357.61034782164637,603.5677708347195 359.67226945435357,607.0284047172265 361.7864190210846,610.4557684334911 363.95188300128575,613.848413785425 366.16772042897367,617.2049124087085 368.4329636428495,620.5238568413452 370.74661906469385,623.8038615671583 373.1076680047562,627.0435640326534 375.51506749279343,630.2416256357235 377.96775113336855,633.3967326847442 380.4646299839716,636.5075973266725 383.0045934544834,639.5729584428341 385.58651022646876,642.5915825111617 388.2092291907485,645.5622644337212 390.8715804016757,648.4838283284464 393.5723760465145,651.3551282840848 396.3104114283019,654.17504907744" />
<polyline stroke="black" fill="none" points="403.0132216768633,335.42656571038293 400.8629169445338,336.7941050592227 398.7375743129942,338.22372203074093 396.6380993680931,339.71537248250365 394.5653995623626,341.268986096417 392.52038369203524,342.88446579318236 390.503961355388,344.5616871558069 388.517042392567,346.300497863387 386.5605363070885,348.10071713641446 385.4585637353736,349.1661898212732" />
<polyline stroke="black" fill="none" points="371.92529418966956,590.7235776445855 372.68545283123035,592.3038248381533 374.51391792960214,595.9745461936479 376.38964741741273,599.6133341850463 378.3117530044477,603.2185931019433 380.2793207611407,606.7887501785669 382.2914119753609,610.3222568511817 384.34706403614524,613.8175899797765 386.44529134267117,617.2732530320831 388.58508623671867,620.6877772280789 390.7654199568254,624.0597226432253 392.98524361230426,627.3876792688133 395.2434891752594,630.6702680278954 397.53907048871326,633.9061417454061 399.8708842889366,637.0939860711895 402.2378112400618,640.2325203547829 404.63871697905074,643.3204984709226 407.0724531690887,646.3567095948736 409.53785855947837,649.3399789268053" />
<polyline stroke="black" fill="none" points="431.26607758990747,320.8588259009796 430.4425918495251,321.2062341793662 428.53256269680344,322.0833690986807 426.6386639656155,323.02559843117217 424.76167839258477,324.03312917444816 422.90239384357153,325.1061438280642 421.0616029191167,326.2447996086499 419.24010254025535,327.4492276660883 417.4386935146109,328.7195323020832 415.6581800827157,330.0557901925025 413.89936944454695,331.45804961493434 412.1630712663075,332.9263296829482 410.4500971675253,334.46061958859707 408.7612601885927,336.0608778547485 407.80896850673275,337.01446746317913" />
<polyline stroke="black" fill="none" points="396.83277497855215,589.266618316858 398.4332657482667,593.0663864459456 400.07247246283026,596.8323091091409 401.7495543943743,600.5626960063644 403.46365001998913,604.2558853042844 405.213877931861,607.9102450017222 406.9993377675264,611.5241742441326 408.8191111582744,615.0961045850969 410.67226269369576,618.6245011929211 412.55784090036445,622.1078640005999 414.4748792326205,625.5447287975669 416.42239707342213,628.9336682618268 418.3994007432334,632.2732929312309 420.40488451492337,635.5622521128329 422.4378316326684,638.7992347294354 424.4972153328677,641.9829701026091 426.58199986511204,645.1122286716394" />
<polyline stroke="black" fill="none" points="461.6779236606842,409.20967629725396 461.67792365988646,409.2096763391386" />
<polyline stroke="black" fill="none" points="456.9968002760381,654.9937262456552 456.99680027508504,654.9937262956947" />
<polyline stroke="black" fill="none" points="470.26963753531567,652.8652914178745 470.2696375345874,652.8652914682364" />
<polyline stroke="black" fill="none" points="485.0691428864599,651.3451769787641 485.0691428859875,651.345177029356" />
<polyline stroke="black" fill="none" points="500.868241700076,650.4991309857605 500.8682416998802,650.4991310364803" />
<polyline stroke="black" fill="none" points="517.0838360870904,650.3644777270783 517.0838360871799,650.3644777778184" />
<polyline stroke="black" fill="none" points="533.1089767292888,650.947206046041 533.1089767296595,650.9472060966929" />
<polyline stroke="black" fill="none" points="548.3476581152826,652.2214943895934 548.3476581159182,652.2214944400528" />
<polyline stroke="black" fill="none" points="562.2484037969114,654.1317433226715 562.2484037977845,654.1317433728416" />
<polyline stroke="black" fill="none" points="574.3330390339627,656.5968156375777 574.3330390350369,656.596815687374" />
<polyline stroke="black" fill="none" points="584.2179416048718,659.5158834316941 584.2179416061041,659.5158834810468" />
<polyline stroke="black" fill="none" points="591.6263725938893,662.775114041957 591.6263725952327,662.7751140908132" />
<polyline stroke="black" fill="none" points="596.3918848983966,666.254414322871 596.3918848998032,666.2544143711957" />
<polyline stroke="black" fill="none" points="598.4539813960727,669.833574327165 598.4539813974956,669.8335743749418" />
<polyline stroke="black" fill="none" points="597.7233058819529,669.177465915002 597.8479525972461,673.3973569106425" />
<polyline stroke="black" fill="none" points="594.3953048492172,666.4301585738057 594.6911127796063,676.8393102130826" />
<polyline stroke="black" fill="none" points="588.6778582704159,661.579037925113 589.1675407541508,680.0642882315448" />
<polyline stroke="black" fill="none" points="580.9324249465162,658.6335706682245 581.5130494235358,682.9898173742267" />
<polyline stroke="black" fill="none" points="571.4232199221162,657.4136712022841 572.0016020835786,685.5465407611941" />
<polyline stroke="black" fill="none" points="560.3998141342378,655.8019158262858 560.9338810491295,687.6780071447859" />
<polyline stroke="black" fill="none" points="548.1819486859716,653.7311870116064 548.6282709924201,689.3400657209611" />
<polyline stroke="black" fill="none" points="535.098983870446,651.1452381547258 535.4141784828367,690.500095918446" />
<polyline stroke="black" fill="none" points="521.4980836043667,651.8676014698224 521.6273723780207,691.1362564539169" />
<polyline stroke="black" fill="none" points="507.6658544522393,651.9818755750862 507.606880500424,691.2368899005917" />
<polyline stroke="black" fill="none" points="493.9390582063869,651.4859710427672 493.6928933146453,690.8001728657379" />
<polyline stroke="black" fill="none" points="480.63273979576513,652.3359510184515 480.2250834148367,689.8340591976199" />
<polyline stroke="black" fill="none" points="471.6990629215763,415.12149721635365 471.11267952209755,453.65152498580255" />
<polyline stroke="black" fill="none" points="468.05463013356564,654.5895596662283 467.5407351731982,688.3565235863194" />
<polyline stroke="black" fill="none" points="461.2796885427836,409.8405230073167 460.2737068066713,462.2577478466381" />
<polyline stroke="black" fill="none" points="456.54851195475044,656.3610492425858 455.9720852979818,686.396073325616" />
<polyline stroke="black" fill="none" points="451.93301372420194,415.4468099508736 450.96419136460753,458.16319170963686" />
<polyline stroke="black" fill="none" points="446.4383205964336,657.7135237282735 445.8423053284763,683.992454502303" />
<polyline stroke="black" fill="none" points="444.0824630798347,422.27660879434563 443.28613793371915,453.4090501401507" />
<polyline stroke="black" fill="none" points="437.98264172561767,660.7499653828984 437.4596235256659,681.197433998216" />
<polyline stroke="black" fill="none" points="437.9382479719216,432.31644702298274 437.4012218926023,451.6425860699867" />
<polyline stroke="black" fill="none" points="431.51192822331853,663.5825881002021 431.1092059420811,678.0754909670171" />
<polyline stroke="black" fill="none" points="433.7261035072574,445.9613895800631 433.56923795834416,451.330125297281" />
<polyline stroke="black" fill="none" points="427.226646346969,668.405820755163 427.04261802319684,674.7042045727719" />
<polyline stroke="black" fill="none" points="425.4649890227883,671.1740864746848 425.46498902137085,671.174086522256" />
<polyline stroke="black" fill="none" points="426.52040836091413,667.5875893461323 426.520408359496,667.5875893942531" />
<polyline stroke="black" fill="none" points="430.27657595907857,664.0570402456561 430.2765759577059,664.0570402943167" />
<polyline stroke="black" fill="none" points="436.71024875263413,660.7013192533801 436.7102487513547,660.7013193025524" />
<polyline stroke="black" fill="none" points="445.69547019042557,657.6412333458723 445.695470189287,657.64123339551" />
<polyline stroke="black" fill="none" points="396.22403510750564,505.85741198436364 396.22403514175966,505.85741197392235" />
<polyline stroke="black" fill="none" points="606.6055012292479,441.72879675654383 606.6055012740774,441.7287967428789" />
<polyline stroke="black" fill="none" points="606.8485925493788,427.4547444580643 606.848592593924,427.4547444441076" />
<polyline stroke="black" fill="none" points="608.5986698760572,414.81992128303574 608.5986699202854,414.81992126885893" />
<polyline stroke="black" fill="none" points="611.7588308368064,404.22365311142096 611.7588308806954,404.223653097102" />
<polyline stroke="black" fill="none" points="616.1826924551633,395.9671881800597 616.1826924987021,395.9671881656785" />
<polyline stroke="black" fill="none" points="621.6856945365474,390.2488745860256 621.6856945797354,390.2488745716604" />
<polyline stroke="black" fill="none" points="628.0570587409223,387.1663937787422 628.0570587837688,387.1663937644662" />
<polyline stroke="black" fill="none" points="432.3283816769682,454.0502341732083 436.7686496427976,452.57573307519243" />
<polyline stroke="black" fill="none" points="621.857432217719,391.112412564498 635.071222066824,386.72444593919624" />
<polyline stroke="black" fill="none" points="423.4641126729267,460.9930082172657 442.3637087543516,454.7677158998285" />
<polyline stroke="black" fill="none" points="616.4518530188557,397.42524242168514 642.4978897548829,388.84600127314866" />
<polyline stroke="black" fill="none" points="412.3683018611247,470.7176003239189 450.96419226237657,458.16319039038206" />
<polyline stroke="black" fill="none" points="611.566974939886,405.9225723028467 650.1102218810724,393.3852861503941" />
<polyline stroke="black" fill="none" points="404.38715276763645,481.1791149460971 459.36436988675814,463.5905466499395" />
<polyline stroke="black" fill="none" points="608.6953759266012,415.8158731379153 657.6910041277773,400.1409627298036" />
<polyline stroke="black" fill="none" points="411.11414290751713,488.47841760746763 465.88186737126136,471.3076016562381" />
<polyline stroke="black" fill="none" points="607.4949294581108,426.90897364690676 665.0369184754402,408.86836829843537" />
<polyline stroke="black" fill="none" points="418.52431828230027,496.9101970113046 460.251005785698,484.130569149" />
<polyline stroke="black" fill="none" points="607.6665240554926,438.9816350414618 671.9612036724448,419.2901107870181" />
<polyline stroke="black" fill="none" points="425.0769137734057,506.659655426158 452.63133623935704,498.4379980930064" />
<polyline stroke="black" fill="none" points="608.9553159296026,451.7942262790297 678.2950879912428,431.1047037113151" />
<polyline stroke="black" fill="none" points="430.61352391812704,517.4565973035267 440.1497838359246,514.6905681075193" />
<polyline stroke="black" fill="none" points="609.4525157606405,465.5836537087629 683.8884037699275,443.9932355323279" />
<polyline stroke="black" fill="none" points="612.3908680197264,479.0798159765152 688.6097752995636,457.62429848183183" />
<polyline stroke="black" fill="none" points="617.6447280530052,492.0447330414261 692.3467265708987,471.65755950777327" />
<polyline stroke="black" fill="none" points="623.4577977202636,504.6705849072468 695.0059959217357,485.7464570279663" />
<polyline stroke="black" fill="none" points="628.0803711762888,517.0895131741617 696.5142776021296,499.54056726638356" />
<polyline stroke="black" fill="none" points="633.2285455771773,528.5178190550266 696.8195374254104,512.6882139693369" />
<polyline stroke="black" fill="none" points="640.7383516491273,538.1960091470953 695.8929689479462,524.8398988776648" />
<polyline stroke="black" fill="none" points="647.1870914188015,546.6518460522241 693.731563989651,535.6531028128059" />
<polyline stroke="black" fill="none" points="654.4800141854095,553.1071783236339 690.3611629456699,544.7989360660938" />
<polyline stroke="black" fill="none" points="662.8186865272389,557.2209332388675 685.8397252434902,551.9709835341794" />
<polyline stroke="black" fill="none" points="670.5143210008275,559.0986710047907 680.2604232669839,556.8964747070869" />
<polyline stroke="black" fill="none" points="673.754027592822,559.3495967616175 673.7540276369872,559.349596751663" />
<polyline stroke="black" fill="none" points="666.4899420814527,559.1663617060129 666.4899421259483,559.1663616959372" />
<polyline stroke="black" fill="none" points="658.675196968242,556.259964284805 658.6751970130347,556.2599642745406" />
<polyline stroke="black" fill="none" points="650.5507598622775,550.6350897291038 650.5507599073228,550.6350897185847" />
<polyline stroke="black" fill="none" points="642.3847074026146,542.3992524665058 642.3847074478589,542.3992524556714" />
<polyline stroke="black" fill="none" points="634.4621341996769,531.7690933772608 634.4621342450589,531.769093366059" />
<polyline stroke="black" fill="none" points="627.0721355769168,519.0697542247706 627.0721356223703,519.069754213161" />
<polyline stroke="black" fill="none" points="620.4927216597844,504.7260508105376 620.4927217052407,504.726050798495" />
<polyline stroke="black" fill="none" points="614.9749955099998,489.2451526650073 614.9749955553907,489.24515265252415" />
<polyline stroke="black" fill="none" points="610.7282340314808,473.1916988992898 610.7282340767415,473.19169888637725" />
<polyline stroke="black" fill="none" points="607.9075455263088,457.1574887820577 607.9075455713798,457.1574887687456" />
<polyline stroke="black" fill="none" points="438.9253019643901,374.0964705883656 456.3978592609721,384.5999851546465" />
<polyline stroke="black" fill="none" points="428.1853926381697,372.4041212017082 462.57158489335234,392.9064087910893" />
<polyline stroke="black" fill="none" points="416.8652703059928,373.27256918876424 467.69903419883065,403.1871712008568" />
<polyline stroke="black" fill="none" points="405.30206542785857,376.60905364152165 461.6779244735617,409.2096756804404" />
<polyline stroke="black" fill="none" points="393.8219118230175,382.26086676372523 450.4550567722848,414.3177571416262" />
<polyline stroke="black" fill="none" points="382.7335594014769,390.02508456125827 442.3381139199942,422.9403704596833" />
<polyline stroke="black" fill="none" points="372.3238774156712,399.6574220747153 436.2804190585814,434.01778079639354" />
<polyline stroke="black" fill="none" points="362.8548036444827,410.8798787436889 432.5325449776786,447.2170701118847" />
<polyline stroke="black" fill="none" points="354.5612546346505,423.38709193866583 424.67813687855937,458.82320342032824" />
<polyline stroke="black" fill="none" points="347.6495259205626,436.8515204136129 412.8130535734029,468.7331604674445" />
<polyline stroke="black" fill="none" points="342.2957624462238,450.92773460965856 403.7591666689909,480.02789869855155" />
<polyline stroke="black" fill="none" points="338.6441563165656,465.25620272301586 397.71140039817493,492.32735460484986" />
<polyline stroke="black" fill="none" points="336.80462494271353,479.46703606646065 396.2240350642034,505.8574126236054" />
<polyline stroke="black" fill="none" points="336.8498356139148,493.18419744444174 396.5949999360539,518.9487495825668" />
<polyline stroke="black" fill="none" points="338.81157331089946,506.03068008690485 401.6686449649532,532.4256715985913" />
<polyline stroke="black" fill="none" points="342.67659823825863,517.6351247336682 401.5264289249202,541.7912683312062" />
<polyline stroke="black" fill="none" points="348.3823064018411,527.640246815223 389.965111984955,544.4054570902431" />
<polyline stroke="black" fill="none" points="355.81268281771304,535.7132807477805 379.37832521015105,545.099690071595" />
</g></svg>
